<?xml version="1.0" encoding="UTF-8"?>
<svg version="1.1" xmlns="http://www.w3.org/2000/svg" width="351" height="351">
<path d="M0 0 C115.83 0 231.66 0 351 0 C351 115.83 351 231.66 351 351 C235.17 351 119.34 351 0 351 C0 235.17 0 119.34 0 0 Z " fill="#021424" transform="translate(0,0)"/>
<path d="M0 0 C3.28879807 1.62767633 6.22535055 3.7032586 9.23291016 5.79736328 C12.75625323 8.19526159 16.38960672 10.42386976 20 12.6875 C21.63432197 13.72102629 23.2684328 14.75488653 24.90234375 15.7890625 C28.38438125 17.98803094 31.87771896 20.16759937 35.37890625 22.3359375 C36.24708984 22.87645752 37.11527344 23.41697754 38.00976562 23.97387695 C39.68108017 25.01397295 41.35545815 26.04916631 43.03320312 27.07885742 C43.78666016 27.54912354 44.54011719 28.01938965 45.31640625 28.50390625 C45.98099854 28.91455322 46.64559082 29.3252002 47.33032227 29.74829102 C49 31 49 31 51 34 C50.66976717 40.16434623 50.66976717 40.16434623 48.73828125 42.57421875 C46.07614705 44.75776703 43.07150159 45.99129781 39.9609375 47.42578125 C36.62172725 49.20111335 33.57331968 51.26074383 30.44433594 53.37915039 C26.36294032 56.08554127 22.14895266 58.56527291 17.9375 61.0625 C16.23784712 62.07348926 14.53862292 63.08519958 12.83984375 64.09765625 C12.02604248 64.58081299 11.21224121 65.06396973 10.3737793 65.56176758 C7.47207676 67.31985969 4.63307686 69.16701974 1.80957031 71.04785156 C-1.72203612 72.90609024 -4.07457883 72.70786283 -8 72 C-11.39619865 69.23767249 -12.75609026 67.52412342 -13.45263672 63.17160034 C-13.62997888 59.59283678 -13.6401585 56.04774807 -13.59375 52.46484375 C-13.59379028 51.15342911 -13.59383057 49.84201447 -13.59387207 48.49085999 C-13.59222345 45.72265931 -13.57361061 42.95527304 -13.54199219 40.18725586 C-13.50227571 36.64749965 -13.49795399 33.10880642 -13.50545502 29.56886959 C-13.50926994 26.17989917 -13.48843901 22.79126168 -13.46875 19.40234375 C-13.46854858 18.13454575 -13.46834717 16.86674774 -13.46813965 15.56053162 C-13.45222778 14.3790303 -13.43631592 13.19752899 -13.41992188 11.98022461 C-13.41150269 10.94353134 -13.4030835 9.90683807 -13.39440918 8.83872986 C-12.93899327 5.56090877 -11.94174489 3.65829797 -10 1 C-6.64982571 -0.67508714 -3.59662636 -0.68846313 0 0 Z " fill="#F94F62" transform="translate(162,121)"/>
<path d="M0 0 C1.65234375 1.66015625 1.65234375 1.66015625 1.9609375 4.2890625 C1.65234375 6.66015625 1.65234375 6.66015625 0.65234375 7.66015625 C-3.48413694 8.0858661 -5.52355422 7.22519384 -8.91015625 4.91015625 C-22.31493474 -3.33593197 -37.92727759 -4.69645543 -53.3359375 -1.6796875 C-60.82520747 0.39219437 -67.10661894 4.09476722 -73.34765625 8.66015625 C-74.00507813 9.13324219 -74.6625 9.60632813 -75.33984375 10.09375 C-86.68581937 18.99403754 -92.24639752 32.49903487 -94.36035156 46.35400391 C-95.15833152 51.47083152 -95.15833152 51.47083152 -97.34765625 53.66015625 C-100.88337054 53.12444196 -100.88337054 53.12444196 -102.34765625 51.66015625 C-104.28179083 36.13181865 -97.35710633 22.69301369 -88.34765625 10.66015625 C-83.01647547 4.15717137 -76.58785727 -0.15993388 -69.34765625 -4.33984375 C-68.66832031 -4.74203125 -67.98898438 -5.14421875 -67.2890625 -5.55859375 C-45.9272623 -17.28315769 -19.75353625 -12.12225558 0 0 Z " fill="#F2F5F6" transform="translate(217.34765625,102.33984375)"/>
<path d="M0 0 C0.58910156 0.13019531 1.17820313 0.26039063 1.78515625 0.39453125 C2.11515625 0.06453125 2.44515625 -0.26546875 2.78515625 -0.60546875 C5.78515625 -0.73046875 5.78515625 -0.73046875 8.78515625 -0.60546875 C11.54067136 2.15004636 9.97083828 10.61427696 9.97265625 14.33203125 C9.98490234 15.64623047 9.99714844 16.96042969 10.00976562 18.31445312 C10.01169922 19.56677734 10.01363281 20.81910156 10.015625 22.109375 C10.01973389 23.2655835 10.02384277 24.42179199 10.02807617 25.61303711 C9.78515625 28.39453125 9.78515625 28.39453125 7.78515625 30.39453125 C5.28515625 30.64453125 5.28515625 30.64453125 2.78515625 30.39453125 C2.12515625 29.73453125 1.46515625 29.07453125 0.78515625 28.39453125 C0.2334375 28.71292969 -0.31828125 29.03132813 -0.88671875 29.359375 C-5.22095019 31.28650811 -9.59498009 31.24723336 -14.21484375 30.39453125 C-18.46506784 27.87138234 -21.63702138 25.12799835 -23.21484375 20.39453125 C-23.87545045 15.32737759 -24.37167596 10.47682924 -21.828125 5.8984375 C-15.35940686 -1.74896247 -9.41887553 -2.57482488 0 0 Z " fill="#CFDEEA" transform="translate(218.21484375,239.60546875)"/>
<path d="M0 0 C1.9375 0.6875 1.9375 0.6875 3.9375 1.6875 C4.9275 1.0275 5.9175 0.3675 6.9375 -0.3125 C9.05859375 -0.32421875 9.05859375 -0.32421875 11.375 0 C12.51775391 0.14888672 12.51775391 0.14888672 13.68359375 0.30078125 C15.9375 0.6875 15.9375 0.6875 18.03515625 1.35546875 C20.2616803 1.96935278 20.2616803 1.96935278 22.9375 -0.3125 C26.76293076 -0.65635894 30.54032261 -0.43745738 33.6015625 2.02734375 C38.39930105 7.76499014 38.12027279 12.03050008 38.125 19.1875 C38.13724609 20.16332031 38.14949219 21.13914062 38.16210938 22.14453125 C38.16404297 23.07652344 38.16597656 24.00851562 38.16796875 24.96875 C38.17207764 25.82533203 38.17618652 26.68191406 38.18041992 27.56445312 C37.9375 29.6875 37.9375 29.6875 35.9375 31.6875 C33.375 31.875 33.375 31.875 30.9375 31.6875 C29.39728682 30.14728682 29.73968455 28.64679837 29.65625 26.50390625 C29.60017578 25.23643555 29.60017578 25.23643555 29.54296875 23.94335938 C29.49076172 22.61014648 29.49076172 22.61014648 29.4375 21.25 C29.36871724 19.5011346 29.29598817 17.75241862 29.21875 16.00390625 C29.18845703 15.22474854 29.15816406 14.44559082 29.12695312 13.64282227 C29.04798278 11.60940634 29.04798278 11.60940634 27.9375 9.6875 C26.27138095 9.644779 24.60367115 9.64686168 22.9375 9.6875 C21.39548861 11.22951139 21.75736932 12.72629447 21.69140625 14.87109375 C21.65853516 15.71607422 21.62566406 16.56105469 21.59179688 17.43164062 C21.53073634 19.22318281 21.47342743 21.0148569 21.41992188 22.80664062 C21.38576172 23.65291016 21.35160156 24.49917969 21.31640625 25.37109375 C21.2913501 26.15025146 21.26629395 26.92940918 21.24047852 27.73217773 C20.9375 29.6875 20.9375 29.6875 18.9375 31.6875 C16.375 31.875 16.375 31.875 13.9375 31.6875 C12.35745647 30.10745647 12.73656238 28.4406482 12.65625 26.25 C12.61886719 25.35539062 12.58148438 24.46078125 12.54296875 23.5390625 C12.47265625 21.63802083 12.40234375 19.73697917 12.33203125 17.8359375 C12.29464844 16.94132812 12.25726563 16.04671875 12.21875 15.125 C12.18845703 14.29871094 12.15816406 13.47242188 12.12695312 12.62109375 C12.14348341 10.68188844 12.14348341 10.68188844 10.9375 9.6875 C8.4375 9.52083333 8.4375 9.52083333 5.9375 9.6875 C4.39548861 11.22951139 4.75736932 12.72629447 4.69140625 14.87109375 C4.65853516 15.71607422 4.62566406 16.56105469 4.59179688 17.43164062 C4.53073634 19.22318281 4.47342743 21.0148569 4.41992188 22.80664062 C4.38576172 23.65291016 4.35160156 24.49917969 4.31640625 25.37109375 C4.2913501 26.15025146 4.26629395 26.92940918 4.24047852 27.73217773 C3.9375 29.6875 3.9375 29.6875 1.9375 31.6875 C-0.5625 31.9375 -0.5625 31.9375 -3.0625 31.6875 C-6.37630454 28.37369546 -5.3591586 24.16308574 -5.38476562 19.65625 C-5.38154297 18.3465625 -5.37832031 17.036875 -5.375 15.6875 C-5.39111328 14.3778125 -5.40722656 13.068125 -5.42382812 11.71875 C-5.42447266 10.4709375 -5.42511719 9.223125 -5.42578125 7.9375 C-5.42876221 6.78765625 -5.43174316 5.6378125 -5.43481445 4.453125 C-5.31195068 3.54046875 -5.18908691 2.6278125 -5.0625 1.6875 C-2.0625 -0.3125 -2.0625 -0.3125 0 0 Z " fill="#F1F4F5" transform="translate(237.0625,238.3125)"/>
<path d="M0 0 C3.5625 1.1875 3.5625 1.1875 6 3 C6.9375 5.5625 6.9375 5.5625 7 8 C6.67 8.66 6.34 9.32 6 10 C1.38 10 -3.24 10 -8 10 C-8.33 11.32 -8.66 12.64 -9 14 C-8.01 14.4125 -7.02 14.825 -6 15.25 C-4.6654246 15.83048605 -3.33218132 16.41404055 -2 17 C-1.29359375 17.30164063 -0.5871875 17.60328125 0.140625 17.9140625 C3.36440672 19.38267417 5.62510559 20.57824379 8 23.25 C9.33959125 26.93387595 9.78244221 30.17472699 9 34 C6.90998814 38.24637331 4.5052 41.31155027 0 43 C-2.83984375 43.30078125 -2.83984375 43.30078125 -5.9375 43.3125 C-6.95714844 43.32925781 -7.97679688 43.34601563 -9.02734375 43.36328125 C-12.40627814 42.95034971 -14.27384059 42.00438554 -17 40 C-18.35439668 37.29120665 -18.06501451 34.99066732 -18 32 C-15.75 31.3125 -15.75 31.3125 -13 31 C-11.66150329 31.99307821 -10.32848691 32.99357052 -9 34 C-5.9157691 34.41702122 -5.9157691 34.41702122 -3 34 C-2.34 33.34 -1.68 32.68 -1 32 C-1 30.68 -1 29.36 -1 28 C-2.21236328 27.56300781 -2.21236328 27.56300781 -3.44921875 27.1171875 C-14.92199743 22.71629049 -14.92199743 22.71629049 -18 17 C-18.95650652 12.88024358 -18.96048638 9.56772396 -16.71484375 5.90234375 C-11.66354523 -0.141839 -7.73471285 -0.65146892 0 0 Z " fill="#F3F5F4" transform="translate(110,227)"/>
<path d="M0 0 C3.93792318 2.56821077 6.74612583 5.61725165 8.875 9.875 C9.0625 12.875 9.0625 12.875 8.875 15.875 C6.875 17.875 6.875 17.875 4.81201172 18.10205078 C3.57088623 18.08634033 3.57088623 18.08634033 2.3046875 18.0703125 C1.40878906 18.06386719 0.51289063 18.05742187 -0.41015625 18.05078125 C-1.34730469 18.03402344 -2.28445312 18.01726562 -3.25 18 C-4.66732422 17.98646484 -4.66732422 17.98646484 -6.11328125 17.97265625 C-8.45077292 17.94904522 -10.78776123 17.91611516 -13.125 17.875 C-11.0224182 20.52076027 -11.0224182 20.52076027 -8.125 22.875 C-5.02225373 23.22764578 -5.02225373 23.22764578 -1.875 22.625 C0.03884725 22.35426063 1.95509686 22.09879239 3.875 21.875 C4.875 22.875 4.875 22.875 5.25 25.25 C4.875 27.875 4.875 27.875 2.71875 29.5078125 C-2.12699167 31.83749599 -6.87089368 31.61266261 -12.125 30.875 C-16.26431413 29.17867862 -18.51536486 26.74028858 -21.0625 23.125 C-22.64146286 18.29523126 -23.17124362 13.7437325 -21.3984375 8.8828125 C-16.84686626 0.26073039 -9.33997148 -3.36238973 0 0 Z " fill="#CFDEEA" transform="translate(183.125,239.125)"/>
<path d="M0 0 C2.24641101 1.29912926 4.09088606 1.33284495 6.62109375 0.9375 C7.28109375 -0.3825 7.94109375 -1.7025 8.62109375 -3.0625 C9.96321437 -1.96903119 11.2945735 -0.8623425 12.62109375 0.25 C13.36359375 0.86488281 14.10609375 1.47976562 14.87109375 2.11328125 C16.62109375 3.9375 16.62109375 3.9375 16.62109375 6.9375 C15.63109375 6.9375 14.64109375 6.9375 13.62109375 6.9375 C13.12609375 4.9575 13.12609375 4.9575 12.62109375 2.9375 C11.85796875 3.1025 11.09484375 3.2675 10.30859375 3.4375 C5.42094715 4.10023174 0.54750839 4.22284599 -4.37890625 3.9375 C-4.87390625 3.4425 -4.87390625 3.4425 -5.37890625 2.9375 C-7.37848989 2.89669217 -9.37935879 2.89495644 -11.37890625 2.9375 C-11.87390625 -0.5275 -11.87390625 -0.5275 -12.37890625 -4.0625 C-12.99378906 -4.12308594 -13.60867187 -4.18367188 -14.2421875 -4.24609375 C-15.45455078 -4.37177734 -15.45455078 -4.37177734 -16.69140625 -4.5 C-17.49191406 -4.58121094 -18.29242188 -4.66242188 -19.1171875 -4.74609375 C-22.34124952 -5.19712833 -24.052713 -5.73630675 -26.37890625 -8.0625 C-26.37890625 -7.4025 -26.37890625 -6.7425 -26.37890625 -6.0625 C-32.00390625 -4.9375 -32.00390625 -4.9375 -35.37890625 -6.0625 C-37.37852189 -6.10170815 -39.37939989 -6.10693347 -41.37890625 -6.0625 C-41.70890625 -5.4025 -42.03890625 -4.7425 -42.37890625 -4.0625 C-45.34890625 -4.3925 -48.31890625 -4.7225 -51.37890625 -5.0625 C-52.03890625 -3.7425 -52.69890625 -2.4225 -53.37890625 -1.0625 C-52.71890625 -0.7325 -52.05890625 -0.4025 -51.37890625 -0.0625 C-52.03890625 0.5975 -52.69890625 1.2575 -53.37890625 1.9375 C-52.71890625 1.9375 -52.05890625 1.9375 -51.37890625 1.9375 C-51.70890625 2.9275 -52.03890625 3.9175 -52.37890625 4.9375 C-53.89484375 4.999375 -53.89484375 4.999375 -55.44140625 5.0625 C-60.23798515 5.77274393 -63.33542579 8.24914771 -66.37890625 11.9375 C-67.73028652 14.59728378 -68.53372114 17.05392729 -69.37890625 19.9375 C-71.84169426 17.47471199 -72.3766188 15.23073018 -73.37890625 11.9375 C-73.50265625 12.63875 -73.62640625 13.34 -73.75390625 14.0625 C-74.41811802 17.11787413 -75.35225873 19.98588839 -76.37890625 22.9375 C-76.70890625 23.9275 -77.03890625 24.9175 -77.37890625 25.9375 C-80.94140625 27.625 -80.94140625 27.625 -84.37890625 28.9375 C-84.19328125 29.68 -84.00765625 30.4225 -83.81640625 31.1875 C-83.36839 34.00360214 -83.56931539 35.26585017 -84.37890625 37.9375 C-84.72469393 39.93538438 -85.06034174 41.93509451 -85.37890625 43.9375 C-86.03890625 43.9375 -86.69890625 43.9375 -87.37890625 43.9375 C-89.57189577 34.31874399 -86.67195545 26.81987829 -81.953125 18.390625 C-80.52088198 16.15153888 -78.99835424 14.04439377 -77.37890625 11.9375 C-76.90195313 11.27363281 -76.425 10.60976562 -75.93359375 9.92578125 C-58.1859643 -12.77156396 -23.00394005 -15.83066842 0 0 Z " fill="#303F52" transform="translate(211.37890625,108.0625)"/>
<path d="M0 0 C0.99 0 1.98 0 3 0 C3 2.31 3 4.62 3 7 C3.99 7 4.98 7 6 7 C6 8.32 6 9.64 6 11 C7.41977909 13.22743787 7.41977909 13.22743787 9 15 C12.37705625 14.46274105 15.696686 13.88935377 19 13 C19.99 14.65 20.98 16.3 22 18 C22.66 17.34 23.32 16.68 24 16 C26.625 15.875 26.625 15.875 29 16 C29.495 17.485 29.495 17.485 30 19 C28.68 19.33 27.36 19.66 26 20 C27.32 20.66 28.64 21.32 30 22 C30 23.65 30 25.3 30 27 C27.69 27.66 25.38 28.32 23 29 C22.9071875 29.928125 22.9071875 29.928125 22.8125 30.875 C22 33 22 33 19.625 34.3125 C17 35 17 35 14 34 C13.67 34.99 13.34 35.98 13 37 C10.29120665 38.35439668 7.99066732 38.06501451 5 38 C4.20046862 34.71303767 3.90341064 33.28976808 5 30 C5.66 30 6.32 30 7 30 C7 29.34 7 28.68 7 28 C6.34 28 5.68 28 5 28 C4.92652344 27.04287109 4.92652344 27.04287109 4.8515625 26.06640625 C4.73941406 24.82697266 4.73941406 24.82697266 4.625 23.5625 C4.55539063 22.73878906 4.48578125 21.91507813 4.4140625 21.06640625 C4.27742187 20.38449219 4.14078125 19.70257813 4 19 C3.34 18.67 2.68 18.34 2 18 C2.66 16.68 3.32 15.36 4 14 C2.33045181 10.77595022 2.33045181 10.77595022 -0.625 10.3125 C-1.40875 10.209375 -2.1925 10.10625 -3 10 C-3.33 10.66 -3.66 11.32 -4 12 C-4 11.01 -4 10.02 -4 9 C-3.01 8.67 -2.02 8.34 -1 8 C-0.67 5.36 -0.34 2.72 0 0 Z " fill="#051423" transform="translate(238,200)"/>
<path d="M0 0 C2.5 0.25 2.5 0.25 4.5 2.25 C4.76991906 4.93839385 4.58737357 7.54141936 4.5 10.25 C5.11875 10.3325 5.7375 10.415 6.375 10.5 C8.5 11.25 8.5 11.25 9.75 13.3125 C9.9975 13.951875 10.245 14.59125 10.5 15.25 C9.51 16.735 9.51 16.735 8.5 18.25 C7.18 18.25 5.86 18.25 4.5 18.25 C4.56002758 20.69012105 4.64700204 23.12413526 4.75 25.5625 C4.76417969 26.25279297 4.77835938 26.94308594 4.79296875 27.65429688 C4.99857979 31.93433517 4.99857979 31.93433517 7.546875 35.23046875 C8.19140625 35.56691406 8.8359375 35.90335937 9.5 36.25 C8.625 41.125 8.625 41.125 7.5 42.25 C1.24719101 42.83988764 1.24719101 42.83988764 -1.875 40.375 C-4.15734165 37.39039938 -4.62364201 35.8071658 -4.59765625 32.1171875 C-4.59443359 31.31152344 -4.59121094 30.50585938 -4.58789062 29.67578125 C-4.57951172 28.83402344 -4.57113281 27.99226563 -4.5625 27.125 C-4.55798828 26.27550781 -4.55347656 25.42601562 -4.54882812 24.55078125 C-4.53702874 22.45049091 -4.51909306 20.3502367 -4.5 18.25 C-5.82 17.92 -7.14 17.59 -8.5 17.25 C-9.125 14.875 -9.125 14.875 -9.5 12.25 C-8.84 11.59 -8.18 10.93 -7.5 10.25 C-6.51 10.25 -5.52 10.25 -4.5 10.25 C-4.54125 8.97125 -4.5825 7.6925 -4.625 6.375 C-4.6953125 4.1953125 -4.6953125 4.1953125 -4.5 2.25 C-2.5 0.25 -2.5 0.25 0 0 Z " fill="#E5E8E9" transform="translate(127.5,227.75)"/>
<path d="M0 0 C0.58910156 0.13019531 1.17820313 0.26039063 1.78515625 0.39453125 C2.11515625 0.06453125 2.44515625 -0.26546875 2.78515625 -0.60546875 C5.78515625 -0.73046875 5.78515625 -0.73046875 8.78515625 -0.60546875 C11.54067136 2.15004636 9.97083828 10.61427696 9.97265625 14.33203125 C9.98490234 15.64623047 9.99714844 16.96042969 10.00976562 18.31445312 C10.01169922 19.56677734 10.01363281 20.81910156 10.015625 22.109375 C10.01973389 23.2655835 10.02384277 24.42179199 10.02807617 25.61303711 C9.78515625 28.39453125 9.78515625 28.39453125 7.78515625 30.39453125 C5.66015625 30.01953125 5.66015625 30.01953125 3.78515625 29.39453125 C4.77515625 28.73453125 5.76515625 28.07453125 6.78515625 27.39453125 C7.36704891 24.96931631 7.36704891 24.96931631 7.47265625 22.26953125 C7.53839844 21.35945313 7.60414063 20.449375 7.671875 19.51171875 C7.70925781 18.81304687 7.74664062 18.114375 7.78515625 17.39453125 C5.47515625 17.72453125 3.16515625 18.05453125 0.78515625 18.39453125 C0.63820312 17.45480469 0.63820312 17.45480469 0.48828125 16.49609375 C0.33875 15.67882812 0.18921875 14.8615625 0.03515625 14.01953125 C-0.1040625 13.20742187 -0.24328125 12.3953125 -0.38671875 11.55859375 C-1.02938675 9.24873037 -1.02938675 9.24873037 -3.13671875 8.12890625 C-5.74646917 7.20666362 -7.46533372 6.98210474 -10.21484375 7.39453125 C-13.90619902 10.13668088 -15.02427777 13.02912267 -16.21484375 17.39453125 C-18.52484375 17.72453125 -20.83484375 18.05453125 -23.21484375 18.39453125 C-23.79321074 13.91448218 -24.16379893 10.02437518 -21.83203125 6.01953125 C-15.29462251 -1.67819679 -9.54766547 -2.61003201 0 0 Z " fill="#F0F3F6" transform="translate(218.21484375,239.60546875)"/>
<path d="M0 0 C1.32 0.33 2.64 0.66 4 1 C5.44 7.12 5.44 7.12 3.6875 10.625 C0.63668807 13.32106636 -2.37052717 14.85337621 -6.07421875 16.49609375 C-9.42488195 18.21839726 -12.43836047 20.26274807 -15.5534668 22.37475586 C-19.63387017 25.08538806 -23.84977217 27.56451678 -28.0625 30.0625 C-29.76215288 31.07348926 -31.46137708 32.08519958 -33.16015625 33.09765625 C-33.97411865 33.58073242 -34.78808105 34.06380859 -35.62670898 34.56152344 C-38.52619213 36.31893056 -41.36024939 38.16890346 -44.17822266 40.05395508 C-47.65449272 41.85917439 -50.16252629 41.65041927 -54 41 C-56.84057809 37.80434964 -57 36.3252957 -57 32 C-52.125 32.875 -52.125 32.875 -51 34 C-49.6696875 33.505 -49.6696875 33.505 -48.3125 33 C-45.29076653 32.08777857 -43.11626294 31.81669042 -40 32 C-40 31.34 -40 30.68 -40 30 C-39.01 30 -38.02 30 -37 30 C-37 29.34 -37 28.68 -37 28 C-36.1646875 27.54560547 -36.1646875 27.54560547 -35.3125 27.08203125 C-31.38580095 24.92632653 -27.52161669 22.73094124 -23.75 20.3125 C-20.91166304 18.50474967 -18.1404349 17.22128024 -15 16 C-13.948125 15.195625 -13.948125 15.195625 -12.875 14.375 C-11 13 -11 13 -8 13 C-8 12.34 -8 11.68 -8 11 C-5.69 10.34 -3.38 9.68 -1 9 C-0.67 6.03 -0.34 3.06 0 0 Z " fill="#EC325C" transform="translate(208,152)"/>
<path d="M0 0 C1.953125 1.3828125 1.953125 1.3828125 2.78125 3.765625 C3.171875 6.3046875 3.5625 8.84375 3.953125 11.3828125 C7.253125 12.0428125 10.553125 12.7028125 13.953125 13.3828125 C14.283125 14.7028125 14.613125 16.0228125 14.953125 17.3828125 C10.88587066 20.0943154 7.7983639 19.96148738 2.953125 20.3828125 C2.623125 24.0128125 2.293125 27.6428125 1.953125 31.3828125 C-0.026875 31.8778125 -0.026875 31.8778125 -2.046875 32.3828125 C-4.54193462 29.88775288 -4.40635876 28.70952362 -4.671875 25.2578125 C-4.74664062 24.34773438 -4.82140625 23.43765625 -4.8984375 22.5 C-4.94742188 21.80132812 -4.99640625 21.10265625 -5.046875 20.3828125 C-5.66175781 20.33382812 -6.27664062 20.28484375 -6.91015625 20.234375 C-7.71839844 20.15960938 -8.52664062 20.08484375 -9.359375 20.0078125 C-10.15988281 19.93820313 -10.96039063 19.86859375 -11.78515625 19.796875 C-14.046875 19.3828125 -14.046875 19.3828125 -17.046875 17.3828125 C-16.716875 16.0628125 -16.386875 14.7428125 -16.046875 13.3828125 C-15.42039062 13.27324219 -14.79390625 13.16367188 -14.1484375 13.05078125 C-13.33117187 12.89222656 -12.51390625 12.73367187 -11.671875 12.5703125 C-10.85976562 12.41949219 -10.04765625 12.26867187 -9.2109375 12.11328125 C-6.68866859 11.50736308 -6.68866859 11.50736308 -5.046875 8.3828125 C-4.66840455 6.3648336 -4.66840455 6.3648336 -4.546875 4.2578125 C-4.381875 2.9790625 -4.216875 1.7003125 -4.046875 0.3828125 C-2.046875 -0.6171875 -2.046875 -0.6171875 0 0 Z " fill="#F1F3F4" transform="translate(114.046875,83.6171875)"/>
<path d="M0 0 C1 1 1 1 1.1875 3.4375 C1 6 1 6 -1 8 C-3.02739952 8.57020611 -5.05632289 8.94816408 -7.125 9.33984375 C-9.38304501 9.92390642 -9.38304501 9.92390642 -11 13 C-11.27604613 15.89706142 -11.46431253 18.72248263 -11.5625 21.625 C-11.87946049 29.87946049 -11.87946049 29.87946049 -13 31 C-15.4375 31.1875 -15.4375 31.1875 -18 31 C-20 29 -20 29 -20.22705078 26.20263672 C-20.21134033 24.45877686 -20.21134033 24.45877686 -20.1953125 22.6796875 C-20.18886719 21.42285156 -20.18242187 20.16601562 -20.17578125 18.87109375 C-20.15902344 17.55238281 -20.14226562 16.23367187 -20.125 14.875 C-20.11496983 13.53516279 -20.10584404 12.19531848 -20.09765625 10.85546875 C-20.07402075 7.57013427 -20.04107234 4.28515535 -20 1 C-13.375 -0.125 -13.375 -0.125 -10 1 C-9.401875 0.67 -8.80375 0.34 -8.1875 0 C-5.16682186 -1.38088144 -3.16417307 -0.77346453 0 0 Z " fill="#F7FAFA" transform="translate(160,239)"/>
<path d="M0 0 C4.38237307 1.06578121 7.78938679 3.75560335 11.44628906 6.30322266 C15.38746721 8.97677649 19.45035023 11.46590798 23.484375 13.99609375 C25.16568504 15.05678388 26.8466992 16.11794322 28.52734375 17.1796875 C29.78383747 17.9726827 31.04034118 18.76566208 32.296875 19.55859375 C31.306875 20.05359375 31.306875 20.05359375 30.296875 20.55859375 C27.9140625 19.5625 27.9140625 19.5625 25.171875 18.12109375 C24.26179688 17.64800781 23.35171875 17.17492187 22.4140625 16.6875 C21.36605469 16.12869141 21.36605469 16.12869141 20.296875 15.55859375 C20.296875 16.54859375 20.296875 17.53859375 20.296875 18.55859375 C18.976875 18.55859375 17.656875 18.55859375 16.296875 18.55859375 C16.296875 17.89859375 16.296875 17.23859375 16.296875 16.55859375 C15.57757813 16.28402344 14.85828125 16.00945312 14.1171875 15.7265625 C10.47635172 14.21879256 7.06724101 12.35415596 3.6015625 10.484375 C1.20051511 9.23123798 1.20051511 9.23123798 -1.703125 10.55859375 C-2.033125 9.89859375 -2.363125 9.23859375 -2.703125 8.55859375 C-3.033125 10.53859375 -3.363125 12.51859375 -3.703125 14.55859375 C-5.023125 14.88859375 -6.343125 15.21859375 -7.703125 15.55859375 C-8.033125 28.75859375 -8.363125 41.95859375 -8.703125 55.55859375 C-9.033125 55.55859375 -9.363125 55.55859375 -9.703125 55.55859375 C-9.80448717 48.36877473 -9.8745746 41.17913973 -9.92285156 33.98876953 C-9.94297552 31.54241042 -9.9702776 29.09609946 -10.00488281 26.64990234 C-10.05336463 23.13497034 -10.07608628 19.62067391 -10.09375 16.10546875 C-10.11439514 15.01055115 -10.13504028 13.91563354 -10.15631104 12.78753662 C-10.15661316 11.7667804 -10.15691528 10.74602417 -10.15722656 9.69433594 C-10.16610901 8.79720886 -10.17499146 7.90008179 -10.18414307 6.97576904 C-9.11463768 1.60137216 -5.26018795 -0.31676314 0 0 Z " fill="#E96973" transform="translate(159.703125,120.44140625)"/>
<path d="M0 0 C3.93792318 2.56821077 6.74612583 5.61725165 8.875 9.875 C8.914992 11.87460012 8.91846799 13.87547242 8.875 15.875 C7.885 15.875 6.895 15.875 5.875 15.875 C5.875 15.215 5.875 14.555 5.875 13.875 C5.215 13.875 4.555 13.875 3.875 13.875 C2.885 15.36 2.885 15.36 1.875 16.875 C1.215 16.875 0.555 16.875 -0.125 16.875 C-0.3415625 16.2253125 -0.558125 15.575625 -0.78125 14.90625 C-1.2246875 14.2359375 -1.668125 13.565625 -2.125 12.875 C-4.71377264 12.3206648 -4.71377264 12.3206648 -7.625 12.375 C-10.59375 12.34375 -10.59375 12.34375 -13.125 11.875 C-14.46875 9.84375 -14.46875 9.84375 -15.125 7.875 C-16.115 7.875 -17.105 7.875 -18.125 7.875 C-17.2686006 4.02120272 -16.73189727 2.2984167 -13.4375 0 C-8.50831658 -1.67406229 -4.91259419 -1.76853391 0 0 Z " fill="#F1F5F5" transform="translate(183.125,239.125)"/>
<path d="M0 0 C2.24641101 1.29912926 4.09088606 1.33284495 6.62109375 0.9375 C7.28109375 -0.3825 7.94109375 -1.7025 8.62109375 -3.0625 C9.96321437 -1.96903119 11.2945735 -0.8623425 12.62109375 0.25 C13.36359375 0.86488281 14.10609375 1.47976562 14.87109375 2.11328125 C16.62109375 3.9375 16.62109375 3.9375 16.62109375 6.9375 C15.63109375 6.9375 14.64109375 6.9375 13.62109375 6.9375 C13.12609375 4.9575 13.12609375 4.9575 12.62109375 2.9375 C11.85796875 3.1025 11.09484375 3.2675 10.30859375 3.4375 C5.42094715 4.10023174 0.54750839 4.22284599 -4.37890625 3.9375 C-4.87390625 3.4425 -4.87390625 3.4425 -5.37890625 2.9375 C-7.37848989 2.89669217 -9.37935879 2.89495644 -11.37890625 2.9375 C-11.87390625 -0.5275 -11.87390625 -0.5275 -12.37890625 -4.0625 C-12.99378906 -4.12308594 -13.60867187 -4.18367188 -14.2421875 -4.24609375 C-15.45455078 -4.37177734 -15.45455078 -4.37177734 -16.69140625 -4.5 C-17.49191406 -4.58121094 -18.29242188 -4.66242188 -19.1171875 -4.74609375 C-22.34124952 -5.19712833 -24.052713 -5.73630675 -26.37890625 -8.0625 C-26.37890625 -7.4025 -26.37890625 -6.7425 -26.37890625 -6.0625 C-32.00390625 -4.9375 -32.00390625 -4.9375 -35.37890625 -6.0625 C-37.37852189 -6.10170815 -39.37939989 -6.10693347 -41.37890625 -6.0625 C-41.70890625 -5.4025 -42.03890625 -4.7425 -42.37890625 -4.0625 C-45.34890625 -4.3925 -48.31890625 -4.7225 -51.37890625 -5.0625 C-52.03890625 -3.7425 -52.69890625 -2.4225 -53.37890625 -1.0625 C-52.71890625 -0.7325 -52.05890625 -0.4025 -51.37890625 -0.0625 C-52.03890625 0.5975 -52.69890625 1.2575 -53.37890625 1.9375 C-54.36890625 1.9375 -55.35890625 1.9375 -56.37890625 1.9375 C-56.04890625 0.9475 -55.71890625 -0.0425 -55.37890625 -1.0625 C-57.02890625 -1.3925 -58.67890625 -1.7225 -60.37890625 -2.0625 C-44.07743396 -15.38618578 -16.08545005 -11.06955702 0 0 Z M-60.37890625 1.9375 C-59.26515625 2.123125 -58.15140625 2.30875 -57.00390625 2.5 C-53.55321764 3.25430657 -53.55321764 3.25430657 -51.37890625 1.9375 C-51.70890625 2.9275 -52.03890625 3.9175 -52.37890625 4.9375 C-55.67890625 5.2675 -58.97890625 5.5975 -62.37890625 5.9375 C-61.71890625 4.6175 -61.05890625 3.2975 -60.37890625 1.9375 Z " fill="#354356" transform="translate(211.37890625,108.0625)"/>
<path d="M0 0 C0.66 0 1.32 0 2 0 C3.62175623 3.24351246 3.5684163 6.49476618 3 10 C0.93715751 14.24945553 -1.50931969 17.31699193 -6 19 C-8.83984375 19.30078125 -8.83984375 19.30078125 -11.9375 19.3125 C-12.95714844 19.32925781 -13.97679688 19.34601563 -15.02734375 19.36328125 C-18.40627814 18.95034971 -20.27384059 18.00438554 -23 16 C-24.35439668 13.29120665 -24.06501451 10.99066732 -24 8 C-21.75 7.3125 -21.75 7.3125 -19 7 C-17.66150329 7.99307821 -16.32848691 8.99357052 -15 10 C-11.95720628 10.66680368 -11.95720628 10.66680368 -9 10 C-7.95107762 8.36368108 -6.95093297 6.69514137 -6 5 C-3.3125 4.1875 -3.3125 4.1875 -1 4 C-0.67 2.68 -0.34 1.36 0 0 Z " fill="#D1DFEA" transform="translate(116,251)"/>
<path d="M0 0 C1.875 0.5625 1.875 0.5625 4 2 C4.2475 3.134375 4.495 4.26875 4.75 5.4375 C5.58044154 9.02625863 5.58044154 9.02625863 7.8984375 10.125 C9.91881734 10.86226141 11.91137328 11.4899865 14 12 C13.67 13.32 13.34 14.64 13 16 C10.36 16.66 7.72 17.32 5 18 C4.67 20.31 4.34 22.62 4 25 C2.35 25.33 0.7 25.66 -1 26 C-1.99 23.03 -2.98 20.06 -4 17 C-6.31 16.67 -8.62 16.34 -11 16 C-11.33 14.68 -11.66 13.36 -12 12 C-9.03 11.01 -6.06 10.02 -3 9 C-2.87625 7.88625 -2.7525 6.7725 -2.625 5.625 C-2 2 -2 2 0 0 Z " fill="#EFF3F3" transform="translate(233,79)"/>
<path d="M0 0 C0.99 0 1.98 0 3 0 C3 3.3 3 6.6 3 10 C4.65 10 6.3 10 8 10 C8 10.99 8 11.98 8 13 C8.66 13 9.32 13 10 13 C10 8.71 10 4.42 10 0 C12.31 0 14.62 0 17 0 C17 0.66 17 1.32 17 2 C16.360625 2.12375 15.72125 2.2475 15.0625 2.375 C14.381875 2.58125 13.70125 2.7875 13 3 C12.67 3.66 12.34 4.32 12 5 C13.32 5 14.64 5 16 5 C16 5.66 16 6.32 16 7 C14.68 7 13.36 7 12 7 C12 7.99 12 8.98 12 10 C13.65 10 15.3 10 17 10 C16.67 10.99 16.34 11.98 16 13 C13.9375 13.6875 13.9375 13.6875 12 14 C12.66 15.65 13.32 17.3 14 19 C11.21176345 20.0326802 10.1322726 20.04509293 7.25 19.0625 C6.13625 18.5365625 6.13625 18.5365625 5 18 C4.34 18.99 3.68 19.98 3 21 C3.66 21.66 4.32 22.32 5 23 C-2.26153846 25.21538462 -2.26153846 25.21538462 -6 24.125 C-6.66 23.75375 -7.32 23.3825 -8 23 C-4.93882432 20.37613513 -4.26826873 20 0 20 C0.33 19.34 0.66 18.68 1 18 C0.34 17.67 -0.32 17.34 -1 17 C-1 16.01 -1 15.02 -1 14 C-1.66 14 -2.32 14 -3 14 C-2.67 13.34 -2.34 12.68 -2 12 C-1.01 12.33 -0.02 12.66 1 13 C0.67 12.67 0.34 12.34 0 12 C-0.07244053 9.98035801 -0.08377188 7.95832876 -0.0625 5.9375 C-0.05347656 4.83277344 -0.04445312 3.72804687 -0.03515625 2.58984375 C-0.02355469 1.73519531 -0.01195312 0.88054687 0 0 Z " fill="#0F202E" transform="translate(221,216)"/>
<path d="M0 0 C3.74225404 1.1566967 5.28964665 1.79776291 7.4375 5.0625 C8 8.5625 8 8.5625 7.4375 12.0625 C4.70901928 15.28706813 3.05807913 15.97540117 -1.125 16.5625 C-4.5625 16.0625 -4.5625 16.0625 -7 14.5 C-9.19271887 11.07935857 -9.19257693 9.05298721 -8.5625 5.0625 C-5.90798953 1.20139386 -4.7398766 0.08315573 0 0 Z " fill="#081622" transform="translate(211.5625,245.9375)"/>
<path d="M0 0 C3.55780196 0.60990891 6.6828589 1.5783681 10 3 C10 3.66 10 4.32 10 5 C10.78375 5.103125 11.5675 5.20625 12.375 5.3125 C15 6 15 6 17 9 C19.63632971 10.23390156 19.63632971 10.23390156 22.625 11.1875 C23.62789062 11.53167969 24.63078125 11.87585938 25.6640625 12.23046875 C26.43492187 12.48441406 27.20578125 12.73835937 28 13 C28.33 12.34 28.66 11.68 29 11 C30.32 11.33 31.64 11.66 33 12 C32.814375 13.36125 32.814375 13.36125 32.625 14.75 C32.74875 15.8225 32.8725 16.895 33 18 C35.92321965 20.28239171 35.92321965 20.28239171 39 22 C39 22.66 39 23.32 39 24 C40.32 24 41.64 24 43 24 C43 22.35 43 20.7 43 19 C45.4375 20.1875 45.4375 20.1875 48 22 C48.8125 24.6875 48.8125 24.6875 49 27 C49.66 27 50.32 27 51 27 C50.88637738 28.4800841 50.75877092 29.95910074 50.625 31.4375 C50.55539063 32.26121094 50.48578125 33.08492187 50.4140625 33.93359375 C50.27742188 34.61550781 50.14078125 35.29742187 50 36 C49.01 36.495 49.01 36.495 48 37 C48.02320313 36.37351563 48.04640625 35.74703125 48.0703125 35.1015625 C48.08835938 34.28429687 48.10640625 33.46703125 48.125 32.625 C48.14820313 31.81289062 48.17140625 31.00078125 48.1953125 30.1640625 C48.21370051 27.78657757 48.21370051 27.78657757 46 26 C45.34 26 44.68 26 44 26 C43.94392578 26.90492188 43.94392578 26.90492188 43.88671875 27.828125 C43.19555401 36.23051986 43.19555401 36.23051986 40 39 C36.5 40.8125 36.5 40.8125 33 42 C32.01 41.67 31.02 41.34 30 41 C30.93972656 40.51080078 30.93972656 40.51080078 31.8984375 40.01171875 C32.71570313 39.57472656 33.53296875 39.13773438 34.375 38.6875 C35.18710938 38.25824219 35.99921875 37.82898438 36.8359375 37.38671875 C39.26834043 36.03221276 39.26834043 36.03221276 41 33 C41.34304412 29.55850589 41.34304412 29.55850589 40 26 C37.50166487 23.60998321 34.62141814 22.01091028 31.625 20.3125 C29.89938576 19.28053934 28.17413639 18.24796835 26.44921875 17.21484375 C25.55509277 16.69003418 24.6609668 16.16522461 23.73974609 15.62451172 C19.25029156 12.96252362 14.84696295 10.16675239 10.4375 7.375 C9.62297363 6.86622314 8.80844727 6.35744629 7.96923828 5.83325195 C7.21497559 5.35976318 6.46071289 4.88627441 5.68359375 4.3984375 C5.01900146 3.98255371 4.35440918 3.56666992 3.66967773 3.13818359 C2 2 2 2 0 0 Z " fill="#0B172A" transform="translate(171,127)"/>
<path d="M0 0 C1.65 0 3.3 0 5 0 C5 0.99 5 1.98 5 3 C5.66 3.66 6.32 4.32 7 5 C6.01 5.33 5.02 5.66 4 6 C4 6.66 4 7.32 4 8 C4.66 8.33 5.32 8.66 6 9 C4.35 9.66 2.7 10.32 1 11 C1 20.9 1 30.8 1 41 C-0.65 40.34 -2.3 39.68 -4 39 C-4.01401855 37.75126099 -4.01401855 37.75126099 -4.02832031 36.47729492 C-4.07236366 33.38497711 -4.13398775 30.29365054 -4.20751953 27.2019043 C-4.24958649 25.20710869 -4.27137864 23.21191918 -4.29296875 21.21679688 C-4.32519531 19.96318359 -4.35742188 18.70957031 -4.390625 17.41796875 C-4.41157227 16.26063232 -4.43251953 15.1032959 -4.45410156 13.91088867 C-4.71092307 10.88144862 -4.71092307 10.88144862 -7.03808594 9.22387695 C-7.68551758 8.81999756 -8.33294922 8.41611816 -9 8 C-9 7.34 -9 6.68 -9 6 C-8.34 6 -7.68 6 -7 6 C-6.67 5.34 -6.34 4.68 -6 4 C-4.68 4 -3.36 4 -2 4 C-1.67 4.66 -1.34 5.32 -1 6 C-0.01 6 0.98 6 2 6 C1.34 4.02 0.68 2.04 0 0 Z " fill="#010B17" transform="translate(232,229)"/>
<path d="M0 0 C0.66 0.33 1.32 0.66 2 1 C2 1.66 2 2.32 2 3 C2.495 3.495 2.99 3.99 3.5 4.5 C3.995 4.995 4.49 5.49 5 6 C5 6.66 5 7.32 5 8 C8.63 8 12.26 8 16 8 C16.66 9.65 17.32 11.3 18 13 C20.33075929 12.04134491 20.33075929 12.04134491 22 9 C23.32 9.66 24.64 10.32 26 11 C25.67 11.99 25.34 12.98 25 14 C16.09 14 7.18 14 -2 14 C-2.33 14.99 -2.66 15.98 -3 17 C-4.54076187 15.45923813 -4.24356699 14.0155515 -4.3125 11.875 C-4.28845897 6.86645197 -2.78710228 4.09355647 0 0 Z " fill="#F1F3F4" transform="translate(165,243)"/>
<path d="M0 0 C0.99 0 1.98 0 3 0 C2.34 1.65 1.68 3.3 1 5 C-0.32 5 -1.64 5 -3 5 C-2.93997242 7.44012105 -2.85299796 9.87413526 -2.75 12.3125 C-2.73582031 13.00279297 -2.72164062 13.69308594 -2.70703125 14.40429688 C-2.50142021 18.68433517 -2.50142021 18.68433517 0.046875 21.98046875 C1.01367188 22.48513672 1.01367188 22.48513672 2 23 C1.125 27.875 1.125 27.875 0 29 C-6.25280899 29.58988764 -6.25280899 29.58988764 -9.375 27.125 C-11.65734165 24.14039938 -12.12364201 22.5571658 -12.09765625 18.8671875 C-12.09443359 18.06152344 -12.09121094 17.25585938 -12.08789062 16.42578125 C-12.07951172 15.58402344 -12.07113281 14.74226562 -12.0625 13.875 C-12.05798828 13.02550781 -12.05347656 12.17601562 -12.04882812 11.30078125 C-12.03702874 9.20049091 -12.01909306 7.1002367 -12 5 C-11.67 5 -11.34 5 -11 5 C-10.67 8.63 -10.34 12.26 -10 16 C-8.35 16 -6.7 16 -5 16 C-4.67 11.38 -4.34 6.76 -4 2 C-2.68 2.33 -1.36 2.66 0 3 C0 2.01 0 1.02 0 0 Z " fill="#BFCED9" transform="translate(135,241)"/>
<path d="M0 0 C0.33 0.66 0.66 1.32 1 2 C1.99 2.33 2.98 2.66 4 3 C4 5.97 4 8.94 4 12 C4.66 12 5.32 12 6 12 C5.62875 12.7425 5.2575 13.485 4.875 14.25 C3.70484137 16.94283647 3.70484137 16.94283647 4.875 19.3125 C5.24625 19.869375 5.6175 20.42625 6 21 C4.68 22.32 3.36 23.64 2 25 C1.01 24.34 0.02 23.68 -1 23 C-1 22.34 -1 21.68 -1 21 C-1.66 21 -2.32 21 -3 21 C-3 20.34 -3 19.68 -3 19 C-2.34 18.67 -1.68 18.34 -1 18 C-1.99 16.68 -2.98 15.36 -4 14 C-3.34 14 -2.68 14 -2 14 C-1.67 12.68 -1.34 11.36 -1 10 C-2.65 10 -4.3 10 -6 10 C-6 9.01 -6 8.02 -6 7 C-4.68 7 -3.36 7 -2 7 C-2 6.34 -2 5.68 -2 5 C-3.32 5 -4.64 5 -6 5 C-5.67 4.01 -5.34 3.02 -5 2 C-2.4375 0.8125 -2.4375 0.8125 0 0 Z " fill="#091724" transform="translate(239,216)"/>
<path d="M0 0 C0.99 0.33 1.98 0.66 3 1 C3.268125 1.969375 3.53625 2.93875 3.8125 3.9375 C4.204375 4.948125 4.59625 5.95875 5 7 C8.01779872 8.45160938 8.01779872 8.45160938 11 9 C10.67 9.99 10.34 10.98 10 12 C9.030625 12.268125 8.06125 12.53625 7.0625 12.8125 C6.051875 13.204375 5.04125 13.59625 4 14 C2.54839062 17.01779872 2.54839062 17.01779872 2 20 C1.01 19.67 0.02 19.34 -1 19 C-1.268125 18.030625 -1.53625 17.06125 -1.8125 16.0625 C-2.204375 15.051875 -2.59625 14.04125 -3 13 C-6.01779872 11.54839062 -6.01779872 11.54839062 -9 11 C-8.67 10.01 -8.34 9.02 -8 8 C-6.02 7.67 -4.04 7.34 -2 7 C-1.34 4.69 -0.68 2.38 0 0 Z " fill="#F7FAFA" transform="translate(109,188)"/>
<path d="M0 0 C0.33 0 0.66 0 1 0 C1 9.57 1 19.14 1 29 C-1 26 -1 26 -0.625 22.8125 C-0.41875 21.884375 -0.2125 20.95625 0 20 C-0.66 20.99 -1.32 21.98 -2 23 C-4.475 22.01 -4.475 22.01 -7 21 C-7 16.05 -7 11.1 -7 6 C-5.68 5.67 -4.36 5.34 -3 5 C-1.30117552 2.50240018 -1.30117552 2.50240018 0 0 Z " fill="#030F1A" transform="translate(139,240)"/>
<path d="M0 0 C0.99 0.33 1.98 0.66 3 1 C3.268125 1.969375 3.53625 2.93875 3.8125 3.9375 C4.204375 4.948125 4.59625 5.95875 5 7 C8.01779872 8.45160938 8.01779872 8.45160938 11 9 C10.67 9.99 10.34 10.98 10 12 C9.030625 12.268125 8.06125 12.53625 7.0625 12.8125 C6.051875 13.204375 5.04125 13.59625 4 14 C2.54839062 17.01779872 2.54839062 17.01779872 2 20 C1.01 19.67 0.02 19.34 -1 19 C-1.268125 18.030625 -1.53625 17.06125 -1.8125 16.0625 C-2.204375 15.051875 -2.59625 14.04125 -3 13 C-6.01779872 11.54839062 -6.01779872 11.54839062 -9 11 C-8.67 10.01 -8.34 9.02 -8 8 C-6.5459375 7.5978125 -6.5459375 7.5978125 -5.0625 7.1875 C-3.5465625 6.5996875 -3.5465625 6.5996875 -2 6 C-0.54839062 2.98220128 -0.54839062 2.98220128 0 0 Z " fill="#F5F9FB" transform="translate(258,167)"/>
<path d="M0 0 C0.33 0 0.66 0 1 0 C1.00364563 0.75310959 1.00729126 1.50621918 1.01104736 2.28215027 C1.0489559 9.38876152 1.10584054 16.49491049 1.18390274 23.60117626 C1.2233677 27.25439913 1.25556059 30.90738133 1.27099609 34.56079102 C1.28616977 38.08834999 1.32062618 41.6152473 1.36830902 45.14251137 C1.39030883 47.13927272 1.39247313 49.13622075 1.39434814 51.13310242 C1.41406677 52.35399063 1.4337854 53.57487885 1.45410156 54.83276367 C1.46298401 55.90531906 1.47186646 56.97787445 1.48101807 58.08293152 C2.12978119 61.72946783 3.38517345 63.41295228 6 66 C11.9927964 67.28417066 15.0586482 65.61481108 20.25 62.5 C21.74273437 61.52546875 21.74273437 61.52546875 23.265625 60.53125 C26 59 26 59 30 59 C28.43938813 62.29462506 27.63687593 63.74524963 24.1875 65.125 C23.135625 65.41375 22.08375 65.7025 21 66 C16.73329705 67.66381684 16.73329705 67.66381684 14 71 C3.52237396 68.32923258 3.52237396 68.32923258 0.87747192 64.28253174 C-0.24592485 61.36028577 -0.23977873 58.98556774 -0.22705078 55.85449219 C-0.22689972 54.61350769 -0.22674866 53.37252319 -0.22659302 52.09393311 C-0.21638061 50.7449121 -0.20594864 49.39589273 -0.1953125 48.046875 C-0.19158049 46.6625387 -0.18873441 45.27819975 -0.18673706 43.89385986 C-0.17911534 40.2573309 -0.15947955 36.62096269 -0.1373291 32.98449707 C-0.11683909 29.27093683 -0.10772861 25.55735052 -0.09765625 21.84375 C-0.07623215 14.56242686 -0.04211401 7.28123599 0 0 Z " fill="#1D030C" transform="translate(148,126)"/>
<path d="M0 0 C0.33 0 0.66 0 1 0 C1.05789006 3.45826342 1.09355821 6.91640293 1.125 10.375 C1.14175781 11.35984375 1.15851563 12.3446875 1.17578125 13.359375 C1.18222656 14.30039062 1.18867188 15.24140625 1.1953125 16.2109375 C1.20578613 17.08024902 1.21625977 17.94956055 1.22705078 18.84521484 C1 21 1 21 -1 23 C-3.5625 23.1875 -3.5625 23.1875 -6 23 C-7 22 -7 22 -7.11352539 20.23413086 C-7.10828857 19.48526611 -7.10305176 18.73640137 -7.09765625 17.96484375 C-7.09443359 17.15595703 -7.09121094 16.34707031 -7.08789062 15.51367188 C-7.07951172 14.66353516 -7.07113281 13.81339844 -7.0625 12.9375 C-7.05798828 12.08349609 -7.05347656 11.22949219 -7.04882812 10.34960938 C-7.03700373 8.23304337 -7.01906769 6.11651315 -7 4 C-5.02 4.99 -5.02 4.99 -3 6 C-2.01 4.02 -1.02 2.04 0 0 Z " fill="#DBE6EC" transform="translate(274,247)"/>
<path d="M0 0 C0.99 0 1.98 0 3 0 C4.33333333 1.33333333 5.66666667 2.66666667 7 4 C10.18022542 6.08861486 13.37940714 7.79313571 17 9 C18.6875 10.5625 18.6875 10.5625 20 12 C19.01 12.495 19.01 12.495 18 13 C17.34 12.67 16.68 12.34 16 12 C15.67 13.32 15.34 14.64 15 16 C13.68 15.67 12.36 15.34 11 15 C11 14.34 11 13.68 11 13 C9.35 12.67 7.7 12.34 6 12 C6 11.34 6 10.68 6 10 C5.2575 9.9175 4.515 9.835 3.75 9.75 C0.43668651 8.84636905 -0.88115832 7.66817101 -3 5 C-3 4.01 -3 3.02 -3 2 C-2.01 2 -1.02 2 0 2 C0 1.34 0 0.68 0 0 Z " fill="#071A2C" transform="translate(175,120)"/>
<path d="M0 0 C2.32008147 3.4801222 2.06168289 5.04662381 1.3984375 9.0703125 C0.57259058 13.07000246 0.57259058 13.07000246 -1 15 C-3.29188996 16.2255245 -5.55007129 17.092619 -8 18 C-7.814375 18.7425 -7.62875 19.485 -7.4375 20.25 C-6.98948375 23.06610214 -7.19040914 24.32835017 -8 27 C-8.34578768 28.99788438 -8.68143549 30.99759451 -9 33 C-9.66 33 -10.32 33 -11 33 C-13.20869496 23.31235775 -10.28991582 15.61405683 -5.36328125 7.20703125 C-1.83796296 1.83796296 -1.83796296 1.83796296 0 0 Z " fill="#233245" transform="translate(135,119)"/>
<path d="M0 0 C0.33 0 0.66 0 1 0 C1 5.61 1 11.22 1 17 C3.31 17 5.62 17 8 17 C8 15.35 8 13.7 8 12 C8.33 12 8.66 12 9 12 C9.05382106 14.62527189 9.09358313 17.24944713 9.125 19.875 C9.14175781 20.62136719 9.15851563 21.36773437 9.17578125 22.13671875 C9.1933959 24.09194461 9.10320189 26.04742021 9 28 C7 30 7 30 4.5 30.25 C2 30 2 30 0 28 C-0.22705078 25.20263672 -0.22705078 25.20263672 -0.1953125 21.6796875 C-0.18886719 20.42285156 -0.18242187 19.16601562 -0.17578125 17.87109375 C-0.15902344 16.55238281 -0.14226562 15.23367187 -0.125 13.875 C-0.11496983 12.53516279 -0.10584404 11.19531848 -0.09765625 9.85546875 C-0.07402075 6.57013427 -0.04107234 3.28515535 0 0 Z " fill="#C1D1D9" transform="translate(232,240)"/>
<path d="M0 0 C0.33 0 0.66 0 1 0 C1.33 3.3 1.66 6.6 2 10 C-1 11 -1 11 -4 11 C-3.67 12.65 -3.34 14.3 -3 16 C-3.99 16.66 -4.98 17.32 -6 18 C-6.66 17.34 -7.32 16.68 -8 16 C-7.67 15.67 -7.34 15.34 -7 15 C-6.95936168 13.33382885 -6.957279 11.66611905 -7 10 C-8.21236328 10.17789062 -8.21236328 10.17789062 -9.44921875 10.359375 C-18.24599022 11.42050545 -18.24599022 11.42050545 -22.25 9.1875 C-24 7 -24 7 -24 5 C-17.73 5 -11.46 5 -5 5 C-5 5.66 -5 6.32 -5 7 C-4.01 7 -3.02 7 -2 7 C-1.34 4.69 -0.68 2.38 0 0 Z " fill="#2B353F" transform="translate(194,252)"/>
<path d="M0 0 C0.99 0 1.98 0 3 0 C3.12375 0.969375 3.2475 1.93875 3.375 2.9375 C3.684375 4.4534375 3.684375 4.4534375 4 6 C4.66 6.33 5.32 6.66 6 7 C6.99 6.01 7.98 5.02 9 4 C8.67 5.98 8.34 7.96 8 10 C8.66 10 9.32 10 10 10 C10 8.35 10 6.7 10 5 C10.99 4.67 11.98 4.34 13 4 C13.3125 6.6875 13.3125 6.6875 13 10 C10.625 12.75 10.625 12.75 8 15 C7.34 15.66 6.68 16.32 6 17 C4.02 17 2.04 17 0 17 C0 11.39 0 5.78 0 0 Z " fill="#3D4953" transform="translate(0,334)"/>
<path d="M0 0 C0 0.33 0 0.66 0 1 C-1.65 1.33 -3.3 1.66 -5 2 C-5.5534764 4.07553648 -6 5.84365964 -6 8 C-4.88625 8.0825 -3.7725 8.165 -2.625 8.25 C-1.42875 8.4975 -0.2325 8.745 1 9 C1.66 10.32 2.32 11.64 3 13 C-1.29 13 -5.58 13 -10 13 C-10.66 11.68 -11.32 10.36 -12 9 C-12.99 9 -13.98 9 -15 9 C-14.1436006 5.14620272 -13.60689727 3.4234167 -10.3125 1.125 C-6.67680634 -0.10976388 -3.81363616 -0.22881817 0 0 Z " fill="#F6F7F8" transform="translate(180,238)"/>
<path d="M0 0 C3.19588316 0.03448795 6.13691725 0.34672931 9.25 1.125 C8.26 1.62 8.26 1.62 7.25 2.125 C7.91 2.785 8.57 3.445 9.25 4.125 C9.91 4.125 10.57 4.125 11.25 4.125 C10.59 6.765 9.93 9.405 9.25 12.125 C7.12255001 11.33994099 4.99810326 10.5467394 2.875 9.75 C1.69164063 9.30914062 0.50828125 8.86828125 -0.7109375 8.4140625 C-3.75 7.125 -3.75 7.125 -5.75 5.125 C-5.07329414 0.65874131 -4.69830557 0.15661019 0 0 Z " fill="#0C1824" transform="translate(105.75,235.875)"/>
<path d="M0 0 C1.32 0.66 2.64 1.32 4 2 C4.66 1.34 5.32 0.68 6 0 C8.9375 -0.375 8.9375 -0.375 12 0 C13.9375 1.5625 13.9375 1.5625 15 4 C14.875 7.625 14.875 7.625 14 11 C13.01 11.66 12.02 12.32 11 13 C7.125 9.25 7.125 9.25 6 7 C3.67843403 6.59270772 1.3431213 6.25561323 -1 6 C-1.625 4.125 -1.625 4.125 -2 2 C-1.34 1.34 -0.68 0.68 0 0 Z " fill="#F3F5F7" transform="translate(259,241)"/>
<path d="M0 0 C1 1 1 1 1.1875 3.4375 C1 6 1 6 -1 8 C-3.02505291 8.60751587 -5.05490697 9.01130438 -7.125 9.4375 C-9.22082328 9.90475673 -9.22082328 9.90475673 -11 12 C-11.33 10.35 -11.66 8.7 -12 7 C-12.66 7 -13.32 7 -14 7 C-14 5.35 -14 3.7 -14 2 C-5.57466589 -1.63160953 -5.57466589 -1.63160953 0 0 Z " fill="#EFF1F2" transform="translate(160,239)"/>
<path d="M0 0 C3.17360194 3.57030218 5 7.19784004 5 12 C3.6875 14.1875 3.6875 14.1875 2 16 C-1 16 -1 16 -3.1875 14.0625 C-5.51472532 10.1302917 -5.97992515 6.49353065 -5 2 C-2 0 -2 0 0 0 Z " fill="#F5F5F6" transform="translate(97,233)"/>
<path d="M0 0 C0.33 0 0.66 0 1 0 C1 5.61 1 11.22 1 17 C2.98 17 4.96 17 7 17 C7.19397476 18.97854258 7.38001321 20.9578648 7.5625 22.9375 C7.66691406 24.03964844 7.77132812 25.14179688 7.87890625 26.27734375 C7.91886719 27.17582031 7.95882812 28.07429688 8 29 C7 30 7 30 4.5625 30.1875 C2 30 2 30 0 28 C-0.22705078 25.20263672 -0.22705078 25.20263672 -0.1953125 21.6796875 C-0.18886719 20.42285156 -0.18242187 19.16601562 -0.17578125 17.87109375 C-0.15902344 16.55238281 -0.14226562 15.23367187 -0.125 13.875 C-0.11496983 12.53516279 -0.10584404 11.19531848 -0.09765625 9.85546875 C-0.07402075 6.57013427 -0.04107234 3.28515535 0 0 Z " fill="#C4D1DC" transform="translate(140,240)"/>
<path d="M0 0 C5.03001428 0.59644438 8.989359 2.88083379 13.375 5.25 C14.10460937 5.63285156 14.83421875 6.01570312 15.5859375 6.41015625 C20.34251472 8.94982873 24.67401533 11.78119347 29 15 C25.79937313 16.60031344 23.27728194 15.03173691 20 14 C20 13.01 20 12.02 20 11 C16.59648662 8.96780512 13.6767073 8.63108961 9.75 8.375 C8.67234375 8.30023438 7.5946875 8.22546875 6.484375 8.1484375 C5.66453125 8.09945312 4.8446875 8.05046875 4 8 C4 7.67 4 7.34 4 7 C2.865625 6.71125 1.73125 6.4225 0.5625 6.125 C-0.613125 5.75375 -1.78875 5.3825 -3 5 C-3.33 4.34 -3.66 3.68 -4 3 C-2.68 3 -1.36 3 0 3 C0 2.01 0 1.02 0 0 Z " fill="#F96565" transform="translate(180,136)"/>
<path d="M0 0 C0.99 0 1.98 0 3 0 C3 2.31 3 4.62 3 7 C3.99 7 4.98 7 6 7 C6 8.32 6 9.64 6 11 C7.29352333 12.69774938 8.62517293 14.36739286 10 16 C10 16.66 10 17.32 10 18 C9.01 18 8.02 18 7 18 C7 21.3 7 24.6 7 28 C6.34 28 5.68 28 5 28 C4.92652344 27.04287109 4.92652344 27.04287109 4.8515625 26.06640625 C4.73941406 24.82697266 4.73941406 24.82697266 4.625 23.5625 C4.55539063 22.73878906 4.48578125 21.91507813 4.4140625 21.06640625 C4.27742187 20.38449219 4.14078125 19.70257813 4 19 C3.34 18.67 2.68 18.34 2 18 C2.66 16.68 3.32 15.36 4 14 C2.33045181 10.77595022 2.33045181 10.77595022 -0.625 10.3125 C-1.40875 10.209375 -2.1925 10.10625 -3 10 C-3.33 10.66 -3.66 11.32 -4 12 C-4 11.01 -4 10.02 -4 9 C-3.01 8.67 -2.02 8.34 -1 8 C-0.67 5.36 -0.34 2.72 0 0 Z " fill="#1A2835" transform="translate(238,200)"/>
<path d="M0 0 C1.5778125 0.556875 1.5778125 0.556875 3.1875 1.125 C4.5178125 1.3725 4.5178125 1.3725 5.875 1.625 C8.1875 2.125 8.1875 2.125 11.1875 4.125 C11.4375 6.6875 11.4375 6.6875 11.1875 9.125 C10.1875 10.125 10.1875 10.125 7.921875 10.359375 C4.68996098 10.0823538 3.10741535 9.18480839 0.4375 7.375 C-0.34109375 6.86453125 -1.1196875 6.3540625 -1.921875 5.828125 C-4.02209315 3.93619295 -4.45270946 2.88339416 -4.8125 0.125 C-2.8125 -0.875 -2.8125 -0.875 0 0 Z " fill="#F4F8F9" transform="translate(207.8125,99.875)"/>
<path d="M0 0 C0.66 0.33 1.32 0.66 2 1 C2 1.66 2 2.32 2 3 C3.65 3.33 5.3 3.66 7 4 C7 4.66 7 5.32 7 6 C9.64 6.33 12.28 6.66 15 7 C14.67 8.65 14.34 10.3 14 12 C13.01 11.34 12.02 10.68 11 10 C10.67 11.32 10.34 12.64 10 14 C6 14 6 14 3.9375 12.1875 C2.9784375 11.1046875 2.9784375 11.1046875 2 10 C1.4225 9.54625 0.845 9.0925 0.25 8.625 C-1.65480337 6.14875562 -1.26246795 4.01838142 -1 1 C-0.67 0.67 -0.34 0.34 0 0 Z " fill="#091D30" transform="translate(204,137)"/>
<path d="M0 0 C-3.875 2 -3.875 2 -5 2 C-4.01 2.66 -3.02 3.32 -2 4 C-2.99 5.485 -2.99 5.485 -4 7 C-2.68 7 -1.36 7 0 7 C0 7.66 0 8.32 0 9 C-4.455 9.495 -4.455 9.495 -9 10 C-9 10.99 -9 11.98 -9 13 C-6.03 13.33 -3.06 13.66 0 14 C-0.33 14.66 -0.66 15.32 -1 16 C-3.0625 16.625 -3.0625 16.625 -5 17 C-5 16.34 -5 15.68 -5 15 C-7.86724686 15.57344937 -8.8614515 15.8614515 -11 18 C-12.51423575 13.45729274 -11.74844903 11.27398652 -10 7 C-9.31320058 4.67251306 -8.64238957 2.34013344 -8 0 C-4.71303767 -0.79953138 -3.28976808 -1.09658936 0 0 Z " fill="#020D1A" transform="translate(103,157)"/>
<path d="M0 0 C9.93008169 5.60599988 19.46543717 11.75282791 29 18 C28.34 18.33 27.68 18.66 27 19 C24.6171875 18.00390625 24.6171875 18.00390625 21.875 16.5625 C20.96492188 16.08941406 20.05484375 15.61632812 19.1171875 15.12890625 C18.06917969 14.57009766 18.06917969 14.57009766 17 14 C17 14.99 17 15.98 17 17 C15.68 16.67 14.36 16.34 13 16 C13.66 16 14.32 16 15 16 C13.69881926 12.09645778 12.09616418 11.54661944 8.625 9.4375 C7.64789063 8.83808594 6.67078125 8.23867187 5.6640625 7.62109375 C4.78492188 7.08613281 3.90578125 6.55117187 3 6 C2.01 5.34 1.02 4.68 0 4 C0 2.68 0 1.36 0 0 Z " fill="#DB8085" transform="translate(163,122)"/>
<path d="M0 0 C1.65 0.33 3.3 0.66 5 1 C5.33 1.99 5.66 2.98 6 4 C5.01 5.485 5.01 5.485 4 7 C1.375 7.1875 1.375 7.1875 -1 7 C-1.103125 8.2375 -1.20625 9.475 -1.3125 10.75 C-1.73801682 14.2792866 -2.48112592 16.37160966 -5 19 C-5.89130413 16.3260876 -6.47731534 13.76276177 -7 11 C-6.01 11 -5.02 11 -4 11 C-4.33 10.01 -4.66 9.02 -5 8 C-4.5625 5.8125 -4.5625 5.8125 -4 4 C-3.34 4 -2.68 4 -2 4 C-1.34 2.68 -0.68 1.36 0 0 Z " fill="#0D1C29" transform="translate(96,150)"/>
<path d="M0 0 C1.98 0 3.96 0 6 0 C6.19397476 1.97854258 6.38001321 3.9578648 6.5625 5.9375 C6.66691406 7.03964844 6.77132813 8.14179688 6.87890625 9.27734375 C6.91886719 10.17582031 6.95882813 11.07429688 7 12 C6 13 6 13 3.5 13.125 C1 13 1 13 0 12 C-0.07244053 9.98035801 -0.08377188 7.95832876 -0.0625 5.9375 C-0.05347656 4.83277344 -0.04445312 3.72804688 -0.03515625 2.58984375 C-0.02355469 1.73519531 -0.01195312 0.88054687 0 0 Z " fill="#D3E2ED" transform="translate(250,257)"/>
<path d="M0 0 C1.32 0.66 2.64 1.32 4 2 C4 6.62 4 11.24 4 16 C3.67 15.01 3.34 14.02 3 13 C1.35 13 -0.3 13 -2 13 C-2 14.98 -2 16.96 -2 19 C-2.33 19 -2.66 19 -3 19 C-3 13.72 -3 8.44 -3 3 C-2.34 3.66 -1.68 4.32 -1 5 C-0.67 3.35 -0.34 1.7 0 0 Z " fill="#F6FAFA" transform="translate(127,244)"/>
<path d="M0 0 C4.875 0.875 4.875 0.875 6 2 C7.53202706 1.74804092 9.05257128 1.42403223 10.5625 1.0625 C11.38878906 0.86785156 12.21507812 0.67320312 13.06640625 0.47265625 C13.70449219 0.31667969 14.34257812 0.16070312 15 0 C15.33 1.32 15.66 2.64 16 4 C13 5 13 5 10.8125 4.0625 C10.214375 3.711875 9.61625 3.36125 9 3 C9 3.66 9 4.32 9 5 C9.66 5 10.32 5 11 5 C11 5.66 11 6.32 11 7 C8.17116253 8.41441874 6.12623255 8.31900332 3 8 C1.125 6.25 1.125 6.25 0 4 C0 2.68 0 1.36 0 0 Z " fill="#F6275C" transform="translate(151,184)"/>
<path d="M0 0 C0.99 0.33 1.98 0.66 3 1 C4.33599181 4.00598158 5.14345053 6.09147996 4.625 9.375 C4.41875 9.91125 4.2125 10.4475 4 11 C3.34 10.67 2.68 10.34 2 10 C2 9.01 2 8.02 2 7 C1.01 7.33 0.02 7.66 -1 8 C-1.33 8.99 -1.66 9.98 -2 11 C-1.01 11.33 -0.02 11.66 1 12 C0.01 12.66 -0.98 13.32 -2 14 C-5.6875 12.625 -5.6875 12.625 -9 11 C-8.67 10.01 -8.34 9.02 -8 8 C-6.5459375 7.5978125 -6.5459375 7.5978125 -5.0625 7.1875 C-3.5465625 6.5996875 -3.5465625 6.5996875 -2 6 C-0.54839062 2.98220128 -0.54839062 2.98220128 0 0 Z " fill="#EAF0F3" transform="translate(258,167)"/>
<path d="M0 0 C3.55780196 0.60990891 6.6828589 1.5783681 10 3 C10 3.66 10 4.32 10 5 C10.78375 5.103125 11.5675 5.20625 12.375 5.3125 C15 6 15 6 17 9 C19.27796534 10.04955301 19.27796534 10.04955301 21.875 10.875 C26.18112533 12.48046291 28.53680834 13.96932273 31 18 C30.34 18.33 29.68 18.66 29 19 C26.48223084 17.59381529 24.09788483 16.13634937 21.6875 14.5625 C20.24386929 13.63742801 18.79985272 12.71295793 17.35546875 11.7890625 C16.6289209 11.32145508 15.90237305 10.85384766 15.15380859 10.37207031 C10.910877 7.66913724 6.58882802 5.09423243 2.28125 2.49609375 C1.5284375 2.00238281 0.775625 1.50867188 0 1 C0 0.67 0 0.34 0 0 Z " fill="#260F1B" transform="translate(171,127)"/>
<path d="M0 0 C1.4540625 0.0309375 1.4540625 0.0309375 2.9375 0.0625 C3.5975 1.7125 4.2575 3.3625 4.9375 5.0625 C7.26825929 4.10384491 7.26825929 4.10384491 8.9375 1.0625 C10.2575 1.7225 11.5775 2.3825 12.9375 3.0625 C12.6075 4.0525 12.2775 5.0425 11.9375 6.0625 C6.9875 6.0625 2.0375 6.0625 -3.0625 6.0625 C-3.3925 5.4025 -3.7225 4.7425 -4.0625 4.0625 C-5.0525 4.5575 -5.0525 4.5575 -6.0625 5.0625 C-3.64893617 0.07446809 -3.64893617 0.07446809 0 0 Z " fill="#F8FCFC" transform="translate(178.0625,250.9375)"/>
<path d="M0 0 C0.99 0.33 1.98 0.66 3 1 C4.1875 4.5625 4.1875 4.5625 5 8 C2.625 9.0625 2.625 9.0625 0 10 C-0.66 9.67 -1.32 9.34 -2 9 C-2.33 9.99 -2.66 10.98 -3 12 C-4.65 12 -6.3 12 -8 12 C-8 10.68 -8 9.36 -8 8 C-6.02 7.67 -4.04 7.34 -2 7 C-1.34 4.69 -0.68 2.38 0 0 Z " fill="#EEF4F7" transform="translate(109,188)"/>
<path d="M0 0 C0.66 0.33 1.32 0.66 2 1 C1.79375 1.928125 1.5875 2.85625 1.375 3.8125 C0.63307034 7.15173402 0.63307034 7.15173402 3 10 C2.01 10.33 1.02 10.66 0 11 C-0.33 12.32 -0.66 13.64 -1 15 C-3.97 15 -6.94 15 -10 15 C-9.34 14.01 -8.68 13.02 -8 12 C-7.34 12 -6.68 12 -6 12 C-4.98888907 8.95086772 -4.98888907 8.95086772 -6 6 C-5.01 6 -4.02 6 -3 6 C-3 6.66 -3 7.32 -3 8 C-2.34 8 -1.68 8 -1 8 C-0.67 5.36 -0.34 2.72 0 0 Z " fill="#010E1B" transform="translate(269,223)"/>
<path d="M0 0 C1.98 0 3.96 0 6 0 C5.67 2.64 5.34 5.28 5 8 C5.66 7.34 6.32 6.68 7 6 C6.67 5.34 6.34 4.68 6 4 C6.4375 1.875 6.4375 1.875 7 0 C7.66 0 8.32 0 9 0 C9.74926071 3.66305234 10.2380014 6.42355152 9 10 C9.66 10 10.32 10 11 10 C11 10.66 11 11.32 11 12 C10.01 12.33 9.02 12.66 8 13 C7.34 12.34 6.68 11.68 6 11 C4.68252676 10.30251417 3.35085807 9.63040043 2 9 C2 6.69 2 4.38 2 2 C1.34 2 0.68 2 0 2 C0 1.34 0 0.68 0 0 Z " fill="#323D45" transform="translate(251,200)"/>
<path d="M0 0 C-0.33 2.31 -0.66 4.62 -1 7 C-5.08753862 7 -6.2320314 6.58815574 -9.625 4.625 C-10.40101563 4.18414062 -11.17703125 3.74328125 -11.9765625 3.2890625 C-14 2 -14 2 -16 0 C-10.39436958 -0.82622671 -5.57710648 -1.06795656 0 0 Z " fill="#2D3B4F" transform="translate(176,112)"/>
<path d="M0 0 C1.65 0 3.3 0 5 0 C4.98839844 0.61488281 4.97679687 1.22976563 4.96484375 1.86328125 C4.95582031 2.67152344 4.94679688 3.47976563 4.9375 4.3125 C4.92589844 5.11300781 4.91429687 5.91351563 4.90234375 6.73828125 C4.90342145 9.16861334 4.90342145 9.16861334 6 12 C5 13 5 13 2.4375 13.0625 C1.633125 13.041875 0.82875 13.02125 0 13 C-1.36421031 10.27157939 -0.87807211 8.39046682 -0.5625 5.375 C-0.40974609 3.87066406 -0.40974609 3.87066406 -0.25390625 2.3359375 C-0.17011719 1.56507813 -0.08632813 0.79421875 0 0 Z " fill="#CFE1ED" transform="translate(268,257)"/>
<path d="M0 0 C-2.29087928 1.48039849 -4.58265983 2.95936676 -6.875 4.4375 C-7.52597656 4.85837891 -8.17695313 5.27925781 -8.84765625 5.71289062 C-14.69075041 9.47777088 -17.17329071 10.11010821 -24 10 C-24 9.67 -24 9.34 -24 9 C-21.36 8.67 -18.72 8.34 -16 8 C-16 7.34 -16 6.68 -16 6 C-16.66 6 -17.32 6 -18 6 C-18 5.34 -18 4.68 -18 4 C-15.69 4.33 -13.38 4.66 -11 5 C-11.33 3.68 -11.66 2.36 -12 1 C-10.35 1.33 -8.7 1.66 -7 2 C-7 1.34 -7 0.68 -7 0 C-2.25 -1.125 -2.25 -1.125 0 0 Z " fill="#E32F63" transform="translate(178,183)"/>
<path d="M0 0 C4.09305456 1.65296434 7.58983503 3.13546142 11 6 C7.35014884 7.35179673 5.47171347 6.55313497 2 5 C1.34 5 0.68 5 0 5 C0.33 6.32 0.66 7.64 1 9 C-2.3 8.01 -5.6 7.02 -9 6 C-7 4 -7 4 -4.375 3.875 C-3.59125 3.91625 -2.8075 3.9575 -2 4 C-2 3.34 -2 2.68 -2 2 C-1.34 2 -0.68 2 0 2 C0 1.34 0 0.68 0 0 Z " fill="#ECF0F1" transform="translate(203,95)"/>
<path d="M0 0 C2.5 0.125 2.5 0.125 3.5 1.125 C3.75 3.5625 3.75 3.5625 3.5 6.125 C2.51 6.785 1.52 7.445 0.5 8.125 C0.83 8.785 1.16 9.445 1.5 10.125 C-0.15 10.455 -1.8 10.785 -3.5 11.125 C-3.52688151 9.47925434 -3.54634123 7.83338587 -3.5625 6.1875 C-3.57410156 5.27097656 -3.58570312 4.35445312 -3.59765625 3.41015625 C-3.4600356 0.18983308 -3.22968262 0.16148413 0 0 Z " fill="#F7F9F8" transform="translate(127.5,227.875)"/>
<path d="M0 0 C1.2065625 0.0309375 1.2065625 0.0309375 2.4375 0.0625 C2.7675 1.0525 3.0975 2.0425 3.4375 3.0625 C2.1175 3.3925 0.7975 3.7225 -0.5625 4.0625 C0.7575 4.7225 2.0775 5.3825 3.4375 6.0625 C3.480221 7.72861905 3.47813832 9.39632885 3.4375 11.0625 C2.4375 12.0625 2.4375 12.0625 -0.625 12.125 C-1.594375 12.104375 -2.56375 12.08375 -3.5625 12.0625 C-3.5625 11.0725 -3.5625 10.0825 -3.5625 9.0625 C-2.2425 8.7325 -0.9225 8.4025 0.4375 8.0625 C-0.8825 7.4025 -2.2025 6.7425 -3.5625 6.0625 C-3.605221 4.39638095 -3.60313832 2.72867115 -3.5625 1.0625 C-2.5625 0.0625 -2.5625 0.0625 0 0 Z " fill="#CADAE3" transform="translate(264.5625,215.9375)"/>
<path d="M0 0 C5.61 0 11.22 0 17 0 C16.67 0.99 16.34 1.98 16 3 C11.3713583 4.81515361 7.78571318 5.52272692 3 4 C2.01 2.68 1.02 1.36 0 0 Z " fill="#0D1721" transform="translate(170,258)"/>
<path d="M0 0 C2.4375 0.8125 2.4375 0.8125 5 2 C5.33 2.99 5.66 3.98 6 5 C7.29355827 6.37195574 8.62298702 7.71182656 10 9 C7 9 7 9 4.3125 7 C-0.00878066 4.39092488 -2.02264815 4.51832079 -7 5 C-9.40557853 5.86265968 -9.40557853 5.86265968 -11 7 C-10.34 5.35 -9.68 3.7 -9 2 C-6.94921875 1.77213542 -4.8984375 1.54427083 -2.84765625 1.31640625 C-0.98859771 1.18113386 -0.98859771 1.18113386 0 0 Z " fill="#2A1D20" transform="translate(161,117)"/>
<path d="M0 0 C0 0.66 0 1.32 0 2 C-1.32 1.67 -2.64 1.34 -4 1 C-2 0 -2 0 0 0 Z M-4 2 C-4 2.99 -4 3.98 -4 5 C-4.99 5.33 -5.98 5.66 -7 6 C-7 6.66 -7 7.32 -7 8 C-8.11375 8.28875 -9.2275 8.5775 -10.375 8.875 C-14.00291092 9.69241329 -14.00291092 9.69241329 -16 12 C-16.66 10.68 -17.32 9.36 -18 8 C-17.01 8 -16.02 8 -15 8 C-15 7.34 -15 6.68 -15 6 C-13.73308493 5.32591692 -12.46129251 4.66099503 -11.1875 4 C-10.47980469 3.62875 -9.77210938 3.2575 -9.04296875 2.875 C-7 2 -7 2 -4 2 Z " fill="#F8295A" transform="translate(186,174)"/>
<path d="M0 0 C4.27096492 0.5777905 7.18835792 2.07534358 10.8125 4.375 C11.78832031 4.98085937 12.76414063 5.58671875 13.76953125 6.2109375 C14.50558594 6.80132812 15.24164063 7.39171875 16 8 C16 8.99 16 9.98 16 11 C10.214986 9.47762789 4.72464012 6.66953274 0 3 C0 2.01 0 1.02 0 0 Z " fill="#FDE6E0" transform="translate(162,127)"/>
<path d="M0 0 C3.17360194 3.57030218 5 7.19784004 5 12 C4.01 12.495 4.01 12.495 3 13 C3 12.01 3 11.02 3 10 C1.68 10 0.36 10 -1 10 C-3.76223278 7.23776722 -3.57856291 4.79293383 -4 1 C-2 0 -2 0 0 0 Z " fill="#FBFAFC" transform="translate(97,233)"/>
<path d="M0 0 C2.31 0 4.62 0 7 0 C7 0.66 7 1.32 7 2 C6.360625 2.12375 5.72125 2.2475 5.0625 2.375 C4.381875 2.58125 3.70125 2.7875 3 3 C2.67 3.66 2.34 4.32 2 5 C3.32 5 4.64 5 6 5 C6 5.66 6 6.32 6 7 C4.68 7 3.36 7 2 7 C2 7.99 2 8.98 2 10 C3.65 10 5.3 10 7 10 C7 10.66 7 11.32 7 12 C4.69 12 2.38 12 0 12 C0 8.04 0 4.08 0 0 Z " fill="#D8E7F2" transform="translate(231,216)"/>
<path d="M0 0 C2.97 0 5.94 0 9 0 C9.33 1.32 9.66 2.64 10 4 C9 5 9 5 6.71484375 5.09765625 C5.34005859 5.08025391 5.34005859 5.08025391 3.9375 5.0625 C3.01839844 5.05347656 2.09929687 5.04445312 1.15234375 5.03515625 C0.44207031 5.02355469 -0.26820313 5.01195312 -1 5 C-0.67 3.35 -0.34 1.7 0 0 Z " fill="#F4F8FA" transform="translate(250,127)"/>
<path d="M0 0 C0.66 1.32 1.32 2.64 2 4 C-2.29 4 -6.58 4 -11 4 C-8.04811682 -1.90376636 -6.18497985 -1.43579889 0 0 Z " fill="#12181D" transform="translate(181,247)"/>
<path d="M0 0 C2.4375 0.6875 2.4375 0.6875 5 2 C5.875 4.5 5.875 4.5 6 7 C5.67 7.66 5.34 8.32 5 9 C0.71 8.67 -3.58 8.34 -8 8 C-8 7.67 -8 7.34 -8 7 C-3.05 5.515 -3.05 5.515 2 4 C1.34 2.68 0.68 1.36 0 0 Z " fill="#DEE3E4" transform="translate(111,228)"/>
<path d="M0 0 C0.66 0.33 1.32 0.66 2 1 C1.67 3.31 1.34 5.62 1 8 C-0.65 8.66 -2.3 9.32 -4 10 C-4 9.34 -4 8.68 -4 8 C-4.66 8 -5.32 8 -6 8 C-6 7.34 -6 6.68 -6 6 C-6.66 5.67 -7.32 5.34 -8 5 C-8 4.34 -8 3.68 -8 3 C-6.865625 2.690625 -5.73125 2.38125 -4.5625 2.0625 C-1.21224901 1.37075469 -1.21224901 1.37075469 0 0 Z " fill="#C6D6E2" transform="translate(217,259)"/>
<path d="M0 0 C0.66 0.33 1.32 0.66 2 1 C2 7.6 2 14.2 2 21 C1.01 20.34 0.02 19.68 -1 19 C-1.328125 16.93359375 -1.328125 16.93359375 -1.25 14.4375 C-1.22421875 13.55191406 -1.1984375 12.66632813 -1.171875 11.75390625 C-0.92572663 7.80993804 -0.50571689 3.91930589 0 0 Z " fill="#04131F" transform="translate(229,247)"/>
<path d="M0 0 C4.79016959 2.23462006 8.98745115 4.48901975 13 8 C12.05125 7.979375 11.1025 7.95875 10.125 7.9375 C7.09333717 7.77448174 7.09333717 7.77448174 5 9 C5 8.01 5 7.02 5 6 C4.05125 6.04125 3.1025 6.0825 2.125 6.125 C-1 6 -1 6 -3 4 C-3.33 3.34 -3.66 2.68 -4 2 C-2.68 2 -1.36 2 0 2 C0 1.34 0 0.68 0 0 Z " fill="#ED6969" transform="translate(163,130)"/>
<path d="M0 0 C1.2065625 0.0309375 1.2065625 0.0309375 2.4375 0.0625 C2.4375 0.7225 2.4375 1.3825 2.4375 2.0625 C3.4275 2.0625 4.4175 2.0625 5.4375 2.0625 C5.4375 2.7225 5.4375 3.3825 5.4375 4.0625 C6.0975 4.0625 6.7575 4.0625 7.4375 4.0625 C7.4375 7.0325 7.4375 10.0025 7.4375 13.0625 C7.1075 13.0625 6.7775 13.0625 6.4375 13.0625 C5.7775 10.7525 5.1175 8.4425 4.4375 6.0625 C2.1275 5.7325 -0.1825 5.4025 -2.5625 5.0625 C-3.125 3.125 -3.125 3.125 -3.5625 1.0625 C-2.5625 0.0625 -2.5625 0.0625 0 0 Z " fill="#E6EAED" transform="translate(224.5625,89.9375)"/>
<path d="M0 0 C0.66 0.33 1.32 0.66 2 1 C2 3.64 2 6.28 2 9 C1.34 9 0.68 9 0 9 C0 10.32 0 11.64 0 13 C-2.5 14.75 -2.5 14.75 -5 16 C-5 12 -5 12 -3 9 C-2.62152955 6.9820211 -2.62152955 6.9820211 -2.5 4.875 C-2.335 3.59625 -2.17 2.3175 -2 1 C-1.34 0.67 -0.68 0.34 0 0 Z " fill="#E9ECEE" transform="translate(112,83)"/>
<path d="M0 0 C0.33 0 0.66 0 1 0 C1 1.65 1 3.3 1 5 C1.99 5.33 2.98 5.66 4 6 C3.34 6 2.68 6 2 6 C2 7.98 2 9.96 2 12 C-1.375 12.125 -1.375 12.125 -5 12 C-5.66 11.34 -6.32 10.68 -7 10 C-6.625 7.875 -6.625 7.875 -6 6 C-4.02 6.495 -4.02 6.495 -2 7 C-1.34 4.69 -0.68 2.38 0 0 Z " fill="#2A3A49" transform="translate(122,148)"/>
<path d="M0 0 C0.99 0 1.98 0 3 0 C3 6 3 12 3 18 C1.35 18.66 -0.3 19.32 -2 20 C-1.505 18.515 -1.505 18.515 -1 17 C-0.85596652 15.66636297 -0.75409577 14.32781954 -0.68359375 12.98828125 C-0.64169922 12.23095703 -0.59980469 11.47363281 -0.55664062 10.69335938 C-0.51732422 9.90767578 -0.47800781 9.12199219 -0.4375 8.3125 C-0.39431641 7.51521484 -0.35113281 6.71792969 -0.30664062 5.89648438 C-0.20072632 3.93118553 -0.09987449 1.96561504 0 0 Z " fill="#1D2834" transform="translate(148,252)"/>
<path d="M0 0 C0.66 0.33 1.32 0.66 2 1 C4.09821215 0.60061233 4.09821215 0.60061233 6 0 C5.67 2.31 5.34 4.62 5 7 C2.69 7.33 0.38 7.66 -2 8 C-2 5.69 -2 3.38 -2 1 C-1.34 0.67 -0.68 0.34 0 0 Z " fill="#F6F9F8" transform="translate(197,250)"/>
<path d="M0 0 C2 2 2 2 2.046875 4.27734375 C1.94890625 5.15519531 1.8509375 6.03304687 1.75 6.9375 C1.61851562 8.25041016 1.61851562 8.25041016 1.484375 9.58984375 C1 12 1 12 -1 15 C-2.32 14.67 -3.64 14.34 -5 14 C-4.505 13.525625 -4.01 13.05125 -3.5 12.5625 C-1.29546331 8.79641649 -1.75391887 5.26540621 -2 1 C-1.34 0.67 -0.68 0.34 0 0 Z " fill="#060A14" transform="translate(193,245)"/>
<path d="M0 0 C0.99 0 1.98 0 3 0 C3 3.3 3 6.6 3 10 C4.65 10 6.3 10 8 10 C8 10.66 8 11.32 8 12 C5.36 12 2.72 12 0 12 C0 8.04 0 4.08 0 0 Z " fill="#C8D9E5" transform="translate(221,216)"/>
<path d="M0 0 C1.24546405 2.49092811 0.7767578 3.41080733 0 6 C0.66 6 1.32 6 2 6 C2 4.35 2 2.7 2 1 C2.99 0.67 3.98 0.34 5 0 C5.36075949 5.41139241 5.36075949 5.41139241 3.8125 7.9375 C2 9 2 9 -0.6875 8.6875 C-1.450625 8.460625 -2.21375 8.23375 -3 8 C-2.45276317 4.62537285 -1.9451 2.91765 0 0 Z " fill="#94A1AB" transform="translate(8,338)"/>
<path d="M0 0 C0.33 0 0.66 0 1 0 C1.33 6.27 1.66 12.54 2 19 C3.32 19.66 4.64 20.32 6 21 C5.32453125 20.91621094 4.6490625 20.83242188 3.953125 20.74609375 C3.06109375 20.64425781 2.1690625 20.54242188 1.25 20.4375 C0.36828125 20.33308594 -0.5134375 20.22867187 -1.421875 20.12109375 C-3.88432451 20.00543324 -5.66538064 20.26361305 -8 21 C-8.33 20.01 -8.66 19.02 -9 18 C-7.35 17.34 -5.7 16.68 -4 16 C-4 16.66 -4 17.32 -4 18 C-3.01 17.67 -2.02 17.34 -1 17 C-0.67 11.39 -0.34 5.78 0 0 Z " fill="#2E3E4B" transform="translate(266,250)"/>
<path d="M0 0 C0.33 0 0.66 0 1 0 C1.19412181 1.47831221 1.38012131 2.95769316 1.5625 4.4375 C1.66691406 5.26121094 1.77132812 6.08492188 1.87890625 6.93359375 C1.91886719 7.61550781 1.95882812 8.29742187 2 9 C1 10 1 10 -1.5625 10.0625 C-2.366875 10.041875 -3.17125 10.02125 -4 10 C-4.33 8.68 -4.66 7.36 -5 6 C-4.34 6 -3.68 6 -3 6 C-2.87625 5.38125 -2.7525 4.7625 -2.625 4.125 C-2 2 -2 2 0 0 Z " fill="#D5E3ED" transform="translate(146,260)"/>
<path d="M0 0 C0.99 0.33 1.98 0.66 3 1 C2.125 5.875 2.125 5.875 1 7 C-1.33297433 7.04092937 -3.66705225 7.04241723 -6 7 C-6.33 6.34 -6.66 5.68 -7 5 C-5.90554162 4.13342884 -4.79902219 3.28207276 -3.6875 2.4375 C-3.07261719 1.96183594 -2.45773438 1.48617188 -1.82421875 0.99609375 C-1.22222656 0.66738281 -0.62023437 0.33867187 0 0 Z " fill="#D6E6F1" transform="translate(134,263)"/>
<path d="M0 0 C1.32 0 2.64 0 4 0 C4 1.32 4 2.64 4 4 C3.34 4 2.68 4 2 4 C1.67 4.99 1.34 5.98 1 7 C-2.34252724 7.07427838 -4.8035914 7.06546953 -8 6 C-8 5.34 -8 4.68 -8 4 C-6.865625 3.71125 -5.73125 3.4225 -4.5625 3.125 C-3.386875 2.75375 -2.21125 2.3825 -1 2 C-0.67 1.34 -0.34 0.68 0 0 Z " fill="#556169" transform="translate(263,128)"/>
<path d="M0 0 C0.66 0 1.32 0 2 0 C2 1.65 2 3.3 2 5 C3.32 5.66 4.64 6.32 6 7 C4.68 7 3.36 7 2 7 C1.67 8.32 1.34 9.64 1 11 C-1.31 11.33 -3.62 11.66 -6 12 C-6.33 11.34 -6.66 10.68 -7 10 C-5.35 9.34 -3.7 8.68 -2 8 C-2 6.68 -2 5.36 -2 4 C-1.34 4 -0.68 4 0 4 C0 2.68 0 1.36 0 0 Z " fill="#030E1A" transform="translate(220,89)"/>
<path d="M0 0 C0.33 0.66 0.66 1.32 1 2 C1.66 2.33 2.32 2.66 3 3 C1.68 3 0.36 3 -1 3 C-0.67 5.64 -0.34 8.28 0 11 C-2.97 10.505 -2.97 10.505 -6 10 C-6 9.01 -6 8.02 -6 7 C-4.68 7 -3.36 7 -2 7 C-2 6.34 -2 5.68 -2 5 C-3.32 5 -4.64 5 -6 5 C-5.67 4.01 -5.34 3.02 -5 2 C-2.4375 0.8125 -2.4375 0.8125 0 0 Z " fill="#3C4A54" transform="translate(239,216)"/>
<path d="M0 0 C1.32 0 2.64 0 4 0 C4.18451025 9.41002278 4.18451025 9.41002278 3 14 C1.51171875 12.85546875 1.51171875 12.85546875 0 11 C-0.29296875 8.30078125 -0.29296875 8.30078125 -0.1875 5.3125 C-0.16042969 4.31863281 -0.13335937 3.32476562 -0.10546875 2.30078125 C-0.07066406 1.54152344 -0.03585938 0.78226563 0 0 Z " fill="#020E19" transform="translate(238,219)"/>
<path d="M0 0 C1.953125 0.8359375 1.953125 0.8359375 4 2 C4.75 4.625 4.75 4.625 5 7 C3.68 7.33 2.36 7.66 1 8 C1.33 8.763125 1.66 9.52625 2 10.3125 C3 13 3 13 3 16 C1.51171875 14.91796875 1.51171875 14.91796875 0 13 C-0.29296875 9.86328125 -0.29296875 9.86328125 -0.1875 6.3125 C-0.16042969 5.13300781 -0.13335937 3.95351562 -0.10546875 2.73828125 C-0.07066406 1.83464844 -0.03585938 0.93101562 0 0 Z " fill="#E73E64" transform="translate(150,176)"/>
<path d="M0 0 C6.09534117 2.88210297 11.62961655 5.91383868 17 10 C13.79937313 11.60031344 11.27728194 10.03173691 8 9 C8 8.01 8 7.02 8 6 C5.36095629 4.58622659 2.92879371 3.62759865 0 3 C0 2.01 0 1.02 0 0 Z " fill="#DA6674" transform="translate(192,141)"/>
<path d="M0 0 C1.32 0.66 2.64 1.32 4 2 C4 4.64 4 7.28 4 10 C1.525 9.01 1.525 9.01 -1 8 C-1.04241723 5.66705225 -1.04092937 3.33297433 -1 1 C-0.67 0.67 -0.34 0.34 0 0 Z " fill="#EDF3F7" transform="translate(233,79)"/>
<path d="M0 0 C1.32 0.33 2.64 0.66 4 1 C4 1.66 4 2.32 4 3 C4.99 3.33 5.98 3.66 7 4 C7.66 4.66 8.32 5.32 9 6 C6 8 6 8 4.0625 7.75 C1.94325972 6.97936717 -0.01322958 6.0643413 -2 5 C-1.67 4.360625 -1.34 3.72125 -1 3.0625 C0.07271225 1.23205433 0.07271225 1.23205433 0 0 Z " fill="#0D1A27" transform="translate(251,233)"/>
<path d="M0 0 C2.97 0 5.94 0 9 0 C9 1.32 9 2.64 9 4 C5.7 4 2.4 4 -1 4 C-0.67 2.68 -0.34 1.36 0 0 Z " fill="#E3EAEF" transform="translate(94,166)"/>
<path d="M0 0 C2.0625 0.4375 2.0625 0.4375 4 1 C4.625 2.875 4.625 2.875 5 5 C4.34 5.66 3.68 6.32 3 7 C0.375 6.625 0.375 6.625 -2 6 C-1.125 1.125 -1.125 1.125 0 0 Z " fill="#EDF6FA" transform="translate(265,147)"/>
<path d="M0 0 C1.65 0.33 3.3 0.66 5 1 C3.125 5.75 3.125 5.75 2 8 C0.35 8 -1.3 8 -3 8 C-3.33 7.01 -3.66 6.02 -4 5 C-3.34 4.360625 -2.68 3.72125 -2 3.0625 C0.11602431 1.35917681 0.11602431 1.35917681 0 0 Z " fill="#FAFCFC" transform="translate(141,103)"/>
<path d="M0 0 C1.67542976 0.28604898 3.34385343 0.61781233 5 1 C5.33 1.99 5.66 2.98 6 4 C5.01 5.485 5.01 5.485 4 7 C2.68 6.67 1.36 6.34 0 6 C-0.38218767 4.34385343 -0.71395102 2.67542976 -1 1 C-0.67 0.67 -0.34 0.34 0 0 Z " fill="#E3EAED" transform="translate(96,150)"/>
<path d="M0 0 C2.05078125 0.03255208 4.1015625 0.06510417 6.15234375 0.09765625 C6.15234375 1.08765625 6.15234375 2.07765625 6.15234375 3.09765625 C4.50234375 3.09765625 2.85234375 3.09765625 1.15234375 3.09765625 C0.49234375 4.41765625 -0.16765625 5.73765625 -0.84765625 7.09765625 C-1.83765625 7.09765625 -2.82765625 7.09765625 -3.84765625 7.09765625 C-2.81269978 0.14866278 -2.81269978 0.14866278 0 0 Z " fill="#EB9E9B" transform="translate(155.84765625,120.90234375)"/>
<path d="M0 0 C1.74271938 2.297221 3.39911152 4.59866729 5 7 C5.66 6.34 6.32 5.68 7 5 C7 9.95 7 14.9 7 20 C6.67 20 6.34 20 6 20 C6 16.37 6 12.74 6 9 C4.02 9 2.04 9 0 9 C0 6.03 0 3.06 0 0 Z " fill="#F4FCFE" transform="translate(250,248)"/>
<path d="M0 0 C5.3503559 0.57021934 10.67787852 1.20734361 16 2 C15.67 2.99 15.34 3.98 15 5 C11.625 5.625 11.625 5.625 8 6 C6.66666667 4.66666667 5.33333333 3.33333333 4 2 C2.68252676 1.30251417 1.35085807 0.63040043 0 0 Z " fill="#E4E8E8" transform="translate(207,238)"/>
<path d="M0 0 C1.43861294 0.08746284 2.87597508 0.19565348 4.3125 0.3125 C5.11300781 0.37050781 5.91351563 0.42851562 6.73828125 0.48828125 C9.36272334 1.08206694 10.30820672 1.95780294 12 4 C11.34 4.66 10.68 5.32 10 6 C8.68 6 7.36 6 6 6 C5.67 6.66 5.34 7.32 5 8 C4.9175 7.4225 4.835 6.845 4.75 6.25 C3.79468987 3.3840696 2.21530827 2.0009236 0 0 Z " fill="#E2E5E6" transform="translate(244,238)"/>
<path d="M0 0 C2.64 0 5.28 0 8 0 C8 0.66 8 1.32 8 2 C7.01 2 6.02 2 5 2 C5 5.3 5 8.6 5 12 C4.34 12 3.68 12 3 12 C2.92652344 11.04287109 2.92652344 11.04287109 2.8515625 10.06640625 C2.77679688 9.24011719 2.70203125 8.41382813 2.625 7.5625 C2.55539063 6.73878906 2.48578125 5.91507813 2.4140625 5.06640625 C2.27742187 4.38449219 2.14078125 3.70257813 2 3 C1.34 2.67 0.68 2.34 0 2 C0 1.34 0 0.68 0 0 Z " fill="#D7E8F0" transform="translate(240,216)"/>
<path d="M0 0 C2 1 2 1 4 3 C3.75 5.0625 3.75 5.0625 3 7 C2.01 7.495 2.01 7.495 1 8 C0.34 7.01 -0.32 6.02 -1 5 C-2.32 5.33 -3.64 5.66 -5 6 C-4.75 4.125 -4.75 4.125 -4 2 C-2.0625 0.6875 -2.0625 0.6875 0 0 Z " fill="#86959E" transform="translate(255,213)"/>
<path d="M0 0 C0.763125 0.309375 1.52625 0.61875 2.3125 0.9375 C4.18789677 1.67893593 6.08684652 2.36228217 8 3 C9.6875 4.5625 9.6875 4.5625 11 6 C10.01 6.495 10.01 6.495 9 7 C8.34 6.67 7.68 6.34 7 6 C6.67 7.32 6.34 8.64 6 10 C4.68 9.67 3.36 9.34 2 9 C2.99 8.34 3.98 7.68 5 7 C5.33 6.01 5.66 5.02 6 4 C4.02 4 2.04 4 0 4 C0 2.68 0 1.36 0 0 Z " fill="#0A202F" transform="translate(184,126)"/>
<path d="M0 0 C5.28 0 10.56 0 16 0 C15.01 0.495 15.01 0.495 14 1 C14 1.66 14 2.32 14 3 C9.13546169 3.97290766 6.67274376 3.55758125 2 2 C1.34 1.34 0.68 0.68 0 0 Z " fill="#334053" transform="translate(171,99)"/>
<path d="M0 0 C1.65 0 3.3 0 5 0 C4.34 1.98 3.68 3.96 3 6 C6.465 5.505 6.465 5.505 10 5 C8 7 8 7 5.6171875 7.1953125 C4.71226562 7.17210937 3.80734375 7.14890625 2.875 7.125 C1.50988281 7.09792969 1.50988281 7.09792969 0.1171875 7.0703125 C-0.58148438 7.04710937 -1.28015625 7.02390625 -2 7 C-2 3.89448334 -1.4606285 2.64738916 0 0 Z " fill="#DBEBF2" transform="translate(175,263)"/>
<path d="M0 0 C0.99 0.33 1.98 0.66 3 1 C3.33 2.98 3.66 4.96 4 7 C3.34 7 2.68 7 2 7 C1.67 7.66 1.34 8.32 1 9 C0.34 7.68 -0.32 6.36 -1 5 C-2.32 5.33 -3.64 5.66 -5 6 C-3.35 4.02 -1.7 2.04 0 0 Z " fill="#EEF1F3" transform="translate(98,228)"/>
<path d="M0 0 C1.65 0.33 3.3 0.66 5 1 C4.34 1.66 3.68 2.32 3 3 C3.66 3.66 4.32 4.32 5 5 C4.625 7.125 4.625 7.125 4 9 C2.35 8.67 0.7 8.34 -1 8 C0.32 7.67 1.64 7.34 3 7 C3 6.34 3 5.68 3 5 C1.68 4.67 0.36 4.34 -1 4 C-0.67 2.68 -0.34 1.36 0 0 Z " fill="#E7EFF2" transform="translate(262,200)"/>
<path d="M0 0 C0.99 0 1.98 0 3 0 C2.34 1.65 1.68 3.3 1 5 C-0.32 5 -1.64 5 -3 5 C-3 9.62 -3 14.24 -3 19 C-3.33 19 -3.66 19 -4 19 C-4 13.39 -4 7.78 -4 2 C-2.68 2.33 -1.36 2.66 0 3 C0 2.01 0 1.02 0 0 Z " fill="#CBD2D6" transform="translate(135,241)"/>
<path d="M0 0 C0.99 0.33 1.98 0.66 3 1 C1.36246219 4.45702427 0.54966459 5.77564711 -3.0625 7.25 C-4.031875 7.4975 -5.00125 7.745 -6 8 C-6.99 8.495 -6.99 8.495 -8 9 C-6.99023354 5.36484074 -6.05356282 4.04330611 -3.0625 1.625 C-2.051875 1.08875 -1.04125 0.5525 0 0 Z " fill="#1C0F1D" transform="translate(175,184)"/>
<path d="M0 0 C1.65 1.65 3.3 3.3 5 5 C2 7 2 7 0 7 C-0.33 7.66 -0.66 8.32 -1 9 C-1.66 7.02 -2.32 5.04 -3 3 C-2.34 3 -1.68 3 -1 3 C-0.67 2.01 -0.34 1.02 0 0 Z " fill="#0F1B26" transform="translate(92,244)"/>
<path d="M0 0 C2.35348271 2.35348271 2.36468749 3.21466691 2.6875 6.4375 C2.77386719 7.21996094 2.86023438 8.00242188 2.94921875 8.80859375 C3 11 3 11 2 14 C1.34 14 0.68 14 0 14 C-0.19627391 12.41773035 -0.38165538 10.83410729 -0.5625 9.25 C-0.66691406 8.36828125 -0.77132812 7.4865625 -0.87890625 6.578125 C-0.99456676 4.11567549 -0.73638695 2.33461936 0 0 Z " fill="#283949" transform="translate(124,138)"/>
<path d="M0 0 C0.66 0.33 1.32 0.66 2 1 C1.67 1.66 1.34 2.32 1 3 C1.598125 2.484375 2.19625 1.96875 2.8125 1.4375 C3.534375 0.963125 4.25625 0.48875 5 0 C5.99 0.33 6.98 0.66 8 1 C8 1.66 8 2.32 8 3 C8.66 3.33 9.32 3.66 10 4 C5.74433453 5.16063604 2.3164922 4.76173392 -2 4 C-1.34 2.68 -0.68 1.36 0 0 Z " fill="#0C1D2B" transform="translate(118,266)"/>
<path d="M0 0 C1.32 0 2.64 0 4 0 C4 0.66 4 1.32 4 2 C3.01 2 2.02 2 1 2 C1 2.66 1 3.32 1 4 C1.99 4.33 2.98 4.66 4 5 C3.01 5 2.02 5 1 5 C1 5.66 1 6.32 1 7 C1.99 7 2.98 7 4 7 C4 7.66 4 8.32 4 9 C2.35 9 0.7 9 -1 9 C-1.09765625 2.84765625 -1.09765625 2.84765625 -1 1 C-0.67 0.67 -0.34 0.34 0 0 Z " fill="#E4EEF3" transform="translate(246,200)"/>
<path d="M0 0 C0.33 0 0.66 0 1 0 C1.35987903 6.23790323 1.35987903 6.23790323 -0.0625 9.25 C-2.78943988 11.71304247 -5.53969629 12.82596838 -9 14 C-9.99 13.67 -10.98 13.34 -12 13 C-11.37351563 12.67386719 -10.74703125 12.34773437 -10.1015625 12.01171875 C-9.28429687 11.57472656 -8.46703125 11.13773438 -7.625 10.6875 C-6.81289062 10.25824219 -6.00078125 9.82898438 -5.1640625 9.38671875 C-2.21357692 7.49606463 -1.16346915 5.70291734 -0.375 2.3125 C-0.25125 1.549375 -0.1275 0.78625 0 0 Z " fill="#3B051B" transform="translate(213,155)"/>
<path d="M0 0 C-1.625 2.0625 -1.625 2.0625 -4 4 C-7.90045589 3.84079772 -9.73124169 3.17917221 -13 1 C-4.57142857 -1.42857143 -4.57142857 -1.42857143 0 0 Z " fill="#454F63" transform="translate(173,100)"/>
<path d="M0 0 C0.33 0 0.66 0 1 0 C0.855625 1.27875 0.71125 2.5575 0.5625 3.875 C0.00185355 8.91280884 -0.50501531 13.95536879 -1 19 C-1.33 19 -1.66 19 -2 19 C-2 15.04 -2 11.08 -2 7 C-2.99 6.67 -3.98 6.34 -5 6 C-4.360625 5.566875 -3.72125 5.13375 -3.0625 4.6875 C-0.73253997 3.08760823 -0.73253997 3.08760823 0 0 Z " fill="#050A11" transform="translate(162,241)"/>
<path d="M0 0 C0.33 0 0.66 0 1 0 C1 2.31 1 4.62 1 7 C0.38125 7.28875 -0.2375 7.5775 -0.875 7.875 C-3.13325765 8.93720042 -3.13325765 8.93720042 -5 11 C-5 10.34 -5 9.68 -5 9 C-5.99 9.33 -6.98 9.66 -8 10 C-8.33 9.01 -8.66 8.02 -9 7 C-2.25 4.875 -2.25 4.875 0 6 C0 4.02 0 2.04 0 0 Z " fill="#020B14" transform="translate(122,231)"/>
<path d="M0 0 C0 0.99 0 1.98 0 3 C0.99 3 1.98 3 3 3 C3 3.66 3 4.32 3 5 C1.02 5.66 -0.96 6.32 -3 7 C-4 6 -4 6 -4.0625 3.4375 C-4.041875 2.633125 -4.02125 1.82875 -4 1 C-2 0 -2 0 0 0 Z " fill="#0C161F" transform="translate(151,234)"/>
<path d="M0 0 C0.99 0.66 1.98 1.32 3 2 C2.67 3.65 2.34 5.3 2 7 C0.02 7 -1.96 7 -4 7 C-4.33 6.34 -4.66 5.68 -5 5 C-4.34 4.67 -3.68 4.34 -3 4 C-3 3.01 -3 2.02 -3 1 C-2.01 0.67 -1.02 0.34 0 0 Z " fill="#F8FAF6" transform="translate(114,249)"/>
<path d="M0 0 C3.79588866 0.54226981 5.47211993 2.20127563 8 5 C7.34 5.66 6.68 6.32 6 7 C4 6.875 4 6.875 2 6 C0.61504198 3.85331506 0 2.56128588 0 0 Z " fill="#0F1E2D" transform="translate(195,264)"/>
<path d="M0 0 C0.33 0.66 0.66 1.32 1 2 C2.32 2 3.64 2 5 2 C5 1.34 5 0.68 5 0 C5.99 0 6.98 0 8 0 C8 0.66 8 1.32 8 2 C8.66 2 9.32 2 10 2 C9.67 3.32 9.34 4.64 9 6 C8.236875 5.67 7.47375 5.34 6.6875 5 C4.00930865 3.82563314 4.00930865 3.82563314 1 4 C0.67 2.68 0.34 1.36 0 0 Z " fill="#0C1A2D" transform="translate(258,211)"/>
<path d="M0 0 C0.66 0 1.32 0 2 0 C0.56284053 3.64757321 -1.07711644 4.97325575 -4.5 6.8125 C-5.2940625 7.25207031 -6.088125 7.69164062 -6.90625 8.14453125 C-7.5971875 8.42683594 -8.288125 8.70914063 -9 9 C-9.66 8.67 -10.32 8.34 -11 8 C-9.9375 6.0625 -9.9375 6.0625 -8 4 C-4.3125 3.25 -4.3125 3.25 -1 3 C-0.67 2.01 -0.34 1.02 0 0 Z " fill="#D93E69" transform="translate(210,160)"/>
<path d="M0 0 C0.66 0 1.32 0 2 0 C1.9071875 1.3921875 1.9071875 1.3921875 1.8125 2.8125 C1.70210808 5.93821954 1.70210808 5.93821954 3.3125 7.75 C4.84031928 8.88171799 6.41800622 9.94533748 8 11 C6.02 11.33 4.04 11.66 2 12 C0.68 8.7 -0.64 5.4 -2 2 C-1.34 1.67 -0.68 1.34 0 1 C0 0.67 0 0.34 0 0 Z " fill="#0E1D2A" transform="translate(137,260)"/>
<path d="M0 0 C2.64 0.66 5.28 1.32 8 2 C2.89306527 5.91531663 0.36484364 6.10265877 -6 6 C-6 5.67 -6 5.34 -6 5 C-3.36 4.67 -0.72 4.34 2 4 C2 3.34 2 2.68 2 2 C1.34 2 0.68 2 0 2 C0 1.34 0 0.68 0 0 Z " fill="#C9325C" transform="translate(160,187)"/>
<path d="M0 0 C1.32 0.33 2.64 0.66 4 1 C4.33 3.31 4.66 5.62 5 8 C4.01 7.67 3.02 7.34 2 7 C2 6.34 2 5.68 2 5 C1.34 5 0.68 5 0 5 C0 3.35 0 1.7 0 0 Z " fill="#E13866" transform="translate(208,152)"/>
<path d="M0 0 C1.98 0 3.96 0 6 0 C6 1.32 6 2.64 6 4 C4.02 4 2.04 4 0 4 C0 2.68 0 1.36 0 0 Z " fill="#DEEAEF" transform="translate(99,137)"/>
<path d="M0 0 C0.33 0.66 0.66 1.32 1 2 C1.66 2.33 2.32 2.66 3 3 C4.0194119 3.98020375 5.02246356 4.97803008 6 6 C3.21176345 7.0326802 2.1322726 7.04509293 -0.75 6.0625 C-1.4925 5.711875 -2.235 5.36125 -3 5 C-2.625 3.0625 -2.625 3.0625 -2 1 C-1.34 0.67 -0.68 0.34 0 0 Z " fill="#0D2235" transform="translate(197,132)"/>
<path d="M0 0 C4.2742558 1.5830577 6.26531794 4.50568404 9 8 C7.68 8.33 6.36 8.66 5 9 C1.125 3.375 1.125 3.375 0 0 Z " fill="#293B4E" transform="translate(220,106)"/>
<path d="M0 0 C0.99 0.33 1.98 0.66 3 1 C3 4.3 3 7.6 3 11 C2.67 10.34 2.34 9.68 2 9 C1.01 9.33 0.02 9.66 -1 10 C-1 7.3493418 -0.63174297 5.52697187 0 3 C0 2.01 0 1.02 0 0 Z " fill="#F9FCFD" transform="translate(113,84)"/>
<path d="M0 0 C1.32 0.33 2.64 0.66 4 1 C3.34 1 2.68 1 2 1 C2.66 1.66 3.32 2.32 4 3 C4.66 3 5.32 3 6 3 C5.34 5.64 4.68 8.28 4 11 C3.01 10.01 2.02 9.02 1 8 C1.66 7.01 2.32 6.02 3 5 C2.01 4.67 1.02 4.34 0 4 C0 2.68 0 1.36 0 0 Z " fill="#192734" transform="translate(111,237)"/>
<path d="M0 0 C2.97 0.33 5.94 0.66 9 1 C9 1.99 9 2.98 9 4 C8.21625 4.144375 7.4325 4.28875 6.625 4.4375 C4.03578982 4.87798925 4.03578982 4.87798925 2 6 C1.67 5.01 1.34 4.02 1 3 C1.33 2.67 1.66 2.34 2 2 C1.34 1.34 0.68 0.68 0 0 Z " fill="#E4E9EB" transform="translate(260,238)"/>
<path d="M0 0 C0.99 0 1.98 0 3 0 C3 1.98 3 3.96 3 6 C1.35 6 -0.3 6 -2 6 C-1.125 1.125 -1.125 1.125 0 0 Z " fill="#101D2A" transform="translate(226,220)"/>
<path d="M0 0 C1.65 0.33 3.3 0.66 5 1 C4.25 5.75 4.25 5.75 2 8 C-1.125 8.125 -1.125 8.125 -4 8 C-2 7 0 6 2 5 C1.34 3.35 0.68 1.7 0 0 Z " fill="#141E2A" transform="translate(105,254)"/>
<path d="M0 0 C1.98 0 3.96 0 6 0 C6 0.66 6 1.32 6 2 C5.34 2 4.68 2 4 2 C4 4.31 4 6.62 4 9 C3.34 9 2.68 9 2 9 C2 6.69 2 4.38 2 2 C1.34 2 0.68 2 0 2 C0 1.34 0 0.68 0 0 Z " fill="#E0E8ED" transform="translate(251,200)"/>
<path d="M0 0 C1.5625 1 1.5625 1 3 3 C2.96726452 5.76614782 2.49404328 8.26030547 2 11 C-0.7865517 8.2134483 -0.65662895 5.84575573 -1 2 C-0.67 1.34 -0.34 0.68 0 0 Z " fill="#26374C" transform="translate(140,117)"/>
<path d="M0 0 C1.9375 0.8125 1.9375 0.8125 4 2 C4.33 2.99 4.66 3.98 5 5 C5.66 5.33 6.32 5.66 7 6 C4.69 5.67 2.38 5.34 0 5 C-0.5625 3.0625 -0.5625 3.0625 -1 1 C-0.67 0.67 -0.34 0.34 0 0 Z " fill="#DAE1E6" transform="translate(98,97)"/>
<path d="M0 0 C3 1 3 1 4.1875 3.0625 C4.455625 3.701875 4.72375 4.34125 5 5 C3.02 5.33 1.04 5.66 -1 6 C-1.625 4.125 -1.625 4.125 -2 2 C-1.34 1.34 -0.68 0.68 0 0 Z " fill="#F9FAFA" transform="translate(259,241)"/>
<path d="M0 0 C0.66 0 1.32 0 2 0 C2 0.99 2 1.98 2 3 C2.66 3 3.32 3 4 3 C4 4.32 4 5.64 4 7 C4.66 7.33 5.32 7.66 6 8 C4.02 8 2.04 8 0 8 C-0.79953138 4.71303767 -1.09658936 3.28976808 0 0 Z " fill="#020E19" transform="translate(243,230)"/>
<path d="M0 0 C0.99 0.66 1.98 1.32 3 2 C3 2.66 3 3.32 3 4 C2.01 4.495 2.01 4.495 1 5 C1.33 5.99 1.66 6.98 2 8 C1.67 8.66 1.34 9.32 1 10 C0.01 10 -0.98 10 -2 10 C-1.54177532 6.53058454 -1.10868317 3.32604951 0 0 Z " fill="#0D1A2A" transform="translate(118,227)"/>
<path d="M0 0 C3.37462715 0.54723683 5.08235 1.0549 8 3 C8 3.66 8 4.32 8 5 C8.99 5.33 9.98 5.66 11 6 C10.67 6.99 10.34 7.98 10 9 C9.46375 8.4225 8.9275 7.845 8.375 7.25 C5.77739162 4.78910785 2.98164407 2.9651745 0 1 C0 0.67 0 0.34 0 0 Z " fill="#2A0C19" transform="translate(202,146)"/>
<path d="M0 0 C1.32 0 2.64 0 4 0 C4 1.98 4 3.96 4 6 C3.01 6.495 3.01 6.495 2 7 C1.34 6.67 0.68 6.34 0 6 C0 4.02 0 2.04 0 0 Z " fill="#F18B8F" transform="translate(150,129)"/>
<path d="M0 0 C2 1.125 2 1.125 4 3 C4.25 6.1875 4.25 6.1875 4 9 C3.01 9 2.02 9 1 9 C-0.61949011 6.42786866 -1.04408751 5.32330841 -0.625 2.25 C-0.41875 1.5075 -0.2125 0.765 0 0 Z " fill="#020C17" transform="translate(105,84)"/>
<path d="M0 0 C1.65 0.33 3.3 0.66 5 1 C5.33 1.99 5.66 2.98 6 4 C3.69 4 1.38 4 -1 4 C-0.67 2.68 -0.34 1.36 0 0 Z " fill="#080E16" transform="translate(177,247)"/>
<path d="M0 0 C0.66 0 1.32 0 2 0 C2.042721 1.66611905 2.04063832 3.33382885 2 5 C1 6 1 6 -2.0625 6.0625 C-3.5165625 6.0315625 -3.5165625 6.0315625 -5 6 C-5 5.01 -5 4.02 -5 3 C-3.68 3 -2.36 3 -1 3 C-0.67 2.01 -0.34 1.02 0 0 Z " fill="#D4E4EC" transform="translate(266,222)"/>
<path d="M0 0 C0.66 0 1.32 0 2 0 C2 0.99 2 1.98 2 3 C2.99 3.33 3.98 3.66 5 4 C3.35 4.33 1.7 4.66 0 5 C0 4.34 0 3.68 0 3 C-0.66 3 -1.32 3 -2 3 C-2 5.64 -2 8.28 -2 11 C-2.33 11 -2.66 11 -3 11 C-3 8.03 -3 5.06 -3 2 C-2.01 2 -1.02 2 0 2 C0 1.34 0 0.68 0 0 Z " fill="#3A4A53" transform="translate(248,216)"/>
<path d="M0 0 C0.66 0 1.32 0 2 0 C2 2.31 2 4.62 2 7 C2.99 7 3.98 7 5 7 C5 7.66 5 8.32 5 9 C3.35 9 1.7 9 0 9 C0 6.03 0 3.06 0 0 Z " fill="#DAE3E9" transform="translate(239,200)"/>
<path d="M0 0 C0.495 0.474375 0.99 0.94875 1.5 1.4375 C4.99468651 3.62167907 7.90966936 3.65913911 12 4 C11.67 4.66 11.34 5.32 11 6 C6.39374606 6.32136655 3.66486096 5.91033076 0 3 C0 2.01 0 1.02 0 0 Z " fill="#30051B" transform="translate(150,189)"/>
<path d="M0 0 C-0.66 0 -1.32 0 -2 0 C-2.33 0.66 -2.66 1.32 -3 2 C-3.99 2 -4.98 2 -6 2 C-6 2.66 -6 3.32 -6 4 C-7.65 3.67 -9.3 3.34 -11 3 C-7.18178484 -0.02823961 -4.81391924 -1.49397494 0 0 Z " fill="#3D4859" transform="translate(162,103)"/>
<path d="M0 0 C0.66 0.33 1.32 0.66 2 1 C2.59355614 3.64860427 2.74209269 6.29197322 3 9 C2.01 9 1.02 9 0 9 C-1.36623674 6.26752652 -1.128426 4.01801098 -1 1 C-0.67 0.67 -0.34 0.34 0 0 Z " fill="#C3D3DF" transform="translate(93,258)"/>
<path d="M0 0 C0.66 0.33 1.32 0.66 2 1 C2 1.66 2 2.32 2 3 C3.65 3.33 5.3 3.66 7 4 C6.67 4.66 6.34 5.32 6 6 C2.9375 6.625 2.9375 6.625 0 7 C-0.38133299 5.0085944 -0.71325582 3.00720923 -1 1 C-0.67 0.67 -0.34 0.34 0 0 Z " fill="#102133" transform="translate(204,137)"/>
<path d="M0 0 C0.99 0.33 1.98 0.66 3 1 C2.67 2.32 2.34 3.64 2 5 C-0.31 5.33 -2.62 5.66 -5 6 C-4.67 5.01 -4.34 4.02 -4 3 C-3.01 2.67 -2.02 2.34 -1 2 C-0.67 1.34 -0.34 0.68 0 0 Z " fill="#E5EAEC" transform="translate(244,90)"/>
<path d="M0 0 C1.98 0.66 3.96 1.32 6 2 C4.02 2.99 4.02 2.99 2 4 C2 5.98 2 7.96 2 10 C1.34 9.67 0.68 9.34 0 9 C0 6.03 0 3.06 0 0 Z " fill="#0A1722" transform="translate(229,236)"/>
<path d="M0 0 C0.33 0 0.66 0 1 0 C1 2.97 1 5.94 1 9 C1.66 9 2.32 9 3 9 C3 9.66 3 10.32 3 11 C1.02 11.99 1.02 11.99 -1 13 C-1 9.98146205 -0.85049285 7.22918921 -0.5 4.25 C-0.4071875 3.45078125 -0.314375 2.6515625 -0.21875 1.828125 C-0.1465625 1.22484375 -0.074375 0.6215625 0 0 Z " fill="#2C3C48" transform="translate(242,219)"/>
<path d="M0 0 C2.4375 0.6875 2.4375 0.6875 5 2 C5.8125 4.625 5.8125 4.625 6 7 C4.125 6.875 4.125 6.875 2 6 C0.75 2.9375 0.75 2.9375 0 0 Z " fill="#E4EBEC" transform="translate(111,228)"/>
<path d="M0 0 C0.99 0.33 1.98 0.66 3 1 C3.33 2.32 3.66 3.64 4 5 C1.03 5 -1.94 5 -5 5 C-4.34 4.34 -3.68 3.68 -3 3 C-2.34 3.33 -1.68 3.66 -1 4 C-0.67 2.68 -0.34 1.36 0 0 Z " fill="#000E1B" transform="translate(268,169)"/>
<path d="M0 0 C0.33 0 0.66 0 1 0 C1 2.64 1 5.28 1 8 C-0.32 8.33 -1.64 8.66 -3 9 C-3 6 -3 6 -1 4 C-0.3574765 1.93125966 -0.3574765 1.93125966 0 0 Z " fill="#0F1921" transform="translate(192,251)"/>
<path d="M0 0 C1.65 0 3.3 0 5 0 C5.66 1.65 6.32 3.3 7 5 C3 5 3 5 1.25 3.625 C0 2 0 2 0 0 Z " fill="#011A20" transform="translate(207,146)"/>
<path d="M0 0 C1.98 0.495 1.98 0.495 4 1 C3.67 2.32 3.34 3.64 3 5 C1.68 4.67 0.36 4.34 -1 4 C-0.67 2.68 -0.34 1.36 0 0 Z " fill="#C1C9D1" transform="translate(244,108)"/>
<path d="M0 0 C-2.31 2.31 -4.62 4.62 -7 7 C-7 5 -7 3 -7 1 C-3.375 -1.125 -3.375 -1.125 0 0 Z " fill="#010811" transform="translate(137,106)"/>
<path d="M0 0 C1.65 0 3.3 0 5 0 C5.33 0.99 5.66 1.98 6 3 C6.99 3.33 7.98 3.66 9 4 C3.25 5.125 3.25 5.125 1 4 C0.375 1.9375 0.375 1.9375 0 0 Z " fill="#F9FCFD" transform="translate(100,97)"/>
<path d="M0 0 C0.99 0.99 1.98 1.98 3 3 C2.67 3.99 2.34 4.98 2 6 C0.35 5.67 -1.3 5.34 -3 5 C-2.01 3.35 -1.02 1.7 0 0 Z " fill="#E9EBEB" transform="translate(237,87)"/>
<path d="M0 0 C0.33 0 0.66 0 1 0 C1.12375 0.928125 1.2475 1.85625 1.375 2.8125 C1.81533082 6.13925235 1.81533082 6.13925235 4 9 C3.01 10.485 3.01 10.485 2 12 C1.34 11.67 0.68 11.34 0 11 C0 7.37 0 3.74 0 0 Z " fill="#202F3B" transform="translate(2,334)"/>
<path d="M0 0 C2.64 0.66 5.28 1.32 8 2 C5.03312999 3.64826111 2.34373475 4.44271087 -1 5 C-0.67 3.35 -0.34 1.7 0 0 Z " fill="#222C36" transform="translate(138,236)"/>
<path d="M0 0 C0.66 0 1.32 0 2 0 C3 3 3 3 2.0625 5.1875 C1.5365625 6.0846875 1.5365625 6.0846875 1 7 C-0.32 6.01 -1.64 5.02 -3 4 C-2.67 3.34 -2.34 2.68 -2 2 C-1.34 2 -0.68 2 0 2 C0 1.34 0 0.68 0 0 Z " fill="#0E1B26" transform="translate(269,234)"/>
<path d="M0 0 C1.32 0 2.64 0 4 0 C3 3 3 3 -0.0625 4.6875 C-1.031875 5.120625 -2.00125 5.55375 -3 6 C-3.33 5.01 -3.66 4.02 -4 3 C-2.68 3 -1.36 3 0 3 C0 2.01 0 1.02 0 0 Z " fill="#E73064" transform="translate(182,176)"/>
<path d="M0 0 C0.99 0.33 1.98 0.66 3 1 C2.67 2.32 2.34 3.64 2 5 C0.35 5.33 -1.3 5.66 -3 6 C-3 5.34 -3 4.68 -3 4 C-2.34 3.67 -1.68 3.34 -1 3 C-0.67 2.01 -0.34 1.02 0 0 Z " fill="#101B25" transform="translate(254,169)"/>
<path d="M0 0 C0.33 1.65 0.66 3.3 1 5 C-0.98 5 -2.96 5 -5 5 C-5.33 3.68 -5.66 2.36 -6 1 C-3.92446352 0.4465236 -2.15634036 0 0 0 Z " fill="#1E2A34" transform="translate(100,146)"/>
<path d="M0 0 C0.33 0 0.66 0 1 0 C1.54466387 4.084979 2 7.8725485 2 12 C1.01 11.67 0.02 11.34 -1 11 C-1.33 10.01 -1.66 9.02 -2 8 C-1.34 8 -0.68 8 0 8 C0 5.36 0 2.72 0 0 Z " fill="#1F2933" transform="translate(109,106)"/>
<path d="M0 0 C0.66 0.66 1.32 1.32 2 2 C-0.97 4.475 -0.97 4.475 -4 7 C-4.66 6.34 -5.32 5.68 -6 5 C-4.02 3.35 -2.04 1.7 0 0 Z " fill="#E8ECEE" transform="translate(140,103)"/>
<path d="M0 0 C0 0.33 0 0.66 0 1 C-1.65 1.33 -3.3 1.66 -5 2 C-5 2.99 -5 3.98 -5 5 C-5.99 4.67 -6.98 4.34 -8 4 C-8 3.34 -8 2.68 -8 2 C-8.66 1.67 -9.32 1.34 -10 1 C-6.52674819 -0.1577506 -3.63932552 -0.06866652 0 0 Z " fill="#D6DCDE" transform="translate(180,238)"/>
<path d="M0 0 C1.98 0 3.96 0 6 0 C5.67 1.32 5.34 2.64 5 4 C3.35 3.67 1.7 3.34 0 3 C0 2.01 0 1.02 0 0 Z " fill="#313D48" transform="translate(233,223)"/>
<path d="M0 0 C0.12375 0.639375 0.2475 1.27875 0.375 1.9375 C0.684375 2.9584375 0.684375 2.9584375 1 4 C1.66 4.33 2.32 4.66 3 5 C2.67 5.66 2.34 6.32 2 7 C0.68 7 -0.64 7 -2 7 C-2.33 7.66 -2.66 8.32 -3 9 C-3.33 7.68 -3.66 6.36 -4 5 C-3.01 5 -2.02 5 -1 5 C-0.67 3.35 -0.34 1.7 0 0 Z " fill="#19242E" transform="translate(261,181)"/>
<path d="M0 0 C0.99 0.33 1.98 0.66 3 1 C3 2.65 3 4.3 3 6 C0.525 5.01 0.525 5.01 -2 4 C-1.34 2.68 -0.68 1.36 0 0 Z " fill="#0B132D" transform="translate(145,119)"/>
<path d="M0 0 C0.33 0.66 0.66 1.32 1 2 C0.67 2.66 0.34 3.32 0 4 C-0.66 4 -1.32 4 -2 4 C-2.33 4.66 -2.66 5.32 -3 6 C-4.32 5.34 -5.64 4.68 -7 4 C-4.69 2.68 -2.38 1.36 0 0 Z " fill="#E9EDED" transform="translate(148,98)"/>
<path d="M0 0 C3.96 1.98 3.96 1.98 8 4 C6.02 4.99 6.02 4.99 4 6 C2 4.6875 2 4.6875 0 3 C0 2.01 0 1.02 0 0 Z " fill="#E0E5E4" transform="translate(206,96)"/>
<path d="M0 0 C0 1.98 0 3.96 0 6 C-1.32 6 -2.64 6 -4 6 C-4.33 4.68 -4.66 3.36 -5 2 C-1.125 0 -1.125 0 0 0 Z " fill="#010E19" transform="translate(231,80)"/>
<path d="M0 0 C0 0.66 0 1.32 0 2 C-2.875 2.625 -2.875 2.625 -6 3 C-6.66 2.34 -7.32 1.68 -8 1 C-4.93251126 -0.86240388 -3.40254489 -1.2151946 0 0 Z " fill="#0E1C2B" transform="translate(231,269)"/>
<path d="M0 0 C3.3 0 6.6 0 10 0 C9.01 1.485 9.01 1.485 8 3 C5.5625 3.375 5.5625 3.375 3 3 C2.01 2.01 1.02 1.02 0 0 Z " fill="#E3EAED" transform="translate(100,227)"/>
<path d="M0 0 C1.37562854 1.28965176 2.70766393 2.62689293 4 4 C4 4.66 4 5.32 4 6 C2.35 6.33 0.7 6.66 -1 7 C-2 4 -2 4 -1.0625 1.8125 C-0.5365625 0.9153125 -0.5365625 0.9153125 0 0 Z " fill="#2B3A4E" transform="translate(130,125)"/>
<path d="M0 0 C1.23556641 0.01740234 1.23556641 0.01740234 2.49609375 0.03515625 C3.32238281 0.04417969 4.14867187 0.05320312 5 0.0625 C5.63808594 0.07410156 6.27617187 0.08570312 6.93359375 0.09765625 C6.93359375 0.42765625 6.93359375 0.75765625 6.93359375 1.09765625 C4.62359375 1.09765625 2.31359375 1.09765625 -0.06640625 1.09765625 C-0.72640625 2.41765625 -1.38640625 3.73765625 -2.06640625 5.09765625 C-2.62890625 3.16015625 -2.62890625 3.16015625 -3.06640625 1.09765625 C-2.06640625 0.09765625 -2.06640625 0.09765625 0 0 Z " fill="#CAD3D9" transform="translate(252.06640625,126.90234375)"/>
<path d="M0 0 C0.66 0 1.32 0 2 0 C2 0.99 2 1.98 2 3 C1.34 3 0.68 3 0 3 C0 3.99 0 4.98 0 6 C-2.31 6 -4.62 6 -7 6 C-7 5.67 -7 5.34 -7 5 C-5.824375 4.87625 -5.824375 4.87625 -4.625 4.75 C-1.85250896 4.27193661 -1.85250896 4.27193661 -0.6875 1.9375 C-0.460625 1.298125 -0.23375 0.65875 0 0 Z " fill="#0D132A" transform="translate(160,113)"/>
<path d="M0 0 C1.32 1.65 2.64 3.3 4 5 C2.25 6.125 2.25 6.125 0 7 C-2.25 6.125 -2.25 6.125 -4 5 C-3.01 4.67 -2.02 4.34 -1 4 C-0.26676204 1.98491642 -0.26676204 1.98491642 0 0 Z " fill="#515F6C" transform="translate(219,105)"/>
<path d="M0 0 C0.99 0.33 1.98 0.66 3 1 C2.625 3.4375 2.625 3.4375 2 6 C1.01 6.495 1.01 6.495 0 7 C-0.66 6.34 -1.32 5.68 -2 5 C-1.34 3.35 -0.68 1.7 0 0 Z " fill="#1B293A" transform="translate(188,263)"/>
<path d="M0 0 C1.5 1.375 1.5 1.375 3 3 C3 3.66 3 4.32 3 5 C0.69 4.34 -1.62 3.68 -4 3 C-2.68 2.01 -1.36 1.02 0 0 Z " fill="#131C21" transform="translate(217,236)"/>
<path d="M0 0 C0.33 0.66 0.66 1.32 1 2 C1.66 2.33 2.32 2.66 3 3 C1.68 4.32 0.36 5.64 -1 7 C-1.66 5.35 -2.32 3.7 -3 2 C-2.01 1.34 -1.02 0.68 0 0 Z " fill="#121F29" transform="translate(93,228)"/>
<path d="M0 0 C1.65 0.33 3.3 0.66 5 1 C4.01 2.485 4.01 2.485 3 4 C1.68 4 0.36 4 -1 4 C-0.67 2.68 -0.34 1.36 0 0 Z " fill="#C5CED2" transform="translate(262,200)"/>
<path d="M0 0 C0.99 0.33 1.98 0.66 3 1 C3 2.32 3 3.64 3 5 C1.68 4.67 0.36 4.34 -1 4 C-0.67 2.68 -0.34 1.36 0 0 Z " fill="#CDD8DF" transform="translate(97,181)"/>
<path d="M0 0 C1.32 0 2.64 0 4 0 C3.67 1.32 3.34 2.64 3 4 C1.68 3.67 0.36 3.34 -1 3 C-0.67 2.01 -0.34 1.02 0 0 Z " fill="#061321" transform="translate(186,130)"/>
<path d="M0 0 C0.763125 0.309375 1.52625 0.61875 2.3125 0.9375 C4.18789677 1.67893593 6.08684652 2.36228217 8 3 C8 3.33 8 3.66 8 4 C5.36 4 2.72 4 0 4 C0 2.68 0 1.36 0 0 Z " fill="#12283D" transform="translate(184,126)"/>
<path d="M0 0 C0.99 0.99 1.98 1.98 3 3 C1.68 4.65 0.36 6.3 -1 8 C-2 6 -2 6 -1.0625 2.875 C-0.5365625 1.451875 -0.5365625 1.451875 0 0 Z " fill="#181F28" transform="translate(121,119)"/>
<path d="M0 0 C2.375 -0.1875 2.375 -0.1875 5 0 C5.66 0.99 6.32 1.98 7 3 C6.67 3.66 6.34 4.32 6 5 C2.60085025 3.86695008 1.94745549 2.87481525 0 0 Z " fill="#09131D" transform="translate(167,122)"/>
<path d="M0 0 C2.64 0 5.28 0 8 0 C8 0.33 8 0.66 8 1 C6.63875 1.433125 6.63875 1.433125 5.25 1.875 C2.67797092 2.76531776 0.38653234 3.71494413 -2 5 C-1.34 3.35 -0.68 1.7 0 0 Z " fill="#1C060D" transform="translate(152,119)"/>
<path d="M0 0 C0.99 0 1.98 0 3 0 C2.67 1.65 2.34 3.3 2 5 C0.68 5 -0.64 5 -2 5 C-1.34 4.67 -0.68 4.34 0 4 C0 2.68 0 1.36 0 0 Z " fill="#203A4C" transform="translate(173,114)"/>
<path d="M0 0 C0.99 0.33 1.98 0.66 3 1 C2.67 2.32 2.34 3.64 2 5 C0.35 5 -1.3 5 -3 5 C-2.34 4.67 -1.68 4.34 -1 4 C-0.34786708 1.97536745 -0.34786708 1.97536745 0 0 Z " fill="#101C25" transform="translate(137,100)"/>
</svg>
