<?xml version="1.0" standalone="no"?>
<!DOCTYPE svg PUBLIC "-//W3C//DTD SVG 20010904//EN"
 "http://www.w3.org/TR/2001/REC-SVG-20010904/DTD/svg10.dtd">
<svg version="1.0" xmlns="http://www.w3.org/2000/svg"
 width="351.000000pt" height="351.000000pt" viewBox="0 0 351.000000 351.000000"
 preserveAspectRatio="xMidYMid meet">

<g transform="translate(0.000000,351.000000) scale(0.100000,-0.100000)"
fill="#000000" stroke="none">
<path d="M0 1840 c0 -1107 3 -1670 10 -1670 6 0 10 -16 10 -35 0 -19 -4 -35
-10 -35 -5 0 -10 -22 -10 -50 l0 -50 1755 0 1755 0 0 1755 0 1755 -1755 0
-1755 0 0 -1670z m2358 868 c7 -7 12 -23 12 -37 0 -39 14 -53 56 -60 30 -5 39
-11 39 -26 0 -15 -9 -21 -39 -26 -39 -6 -56 -21 -56 -51 0 -30 -12 -48 -31
-48 -14 0 -20 10 -25 40 -7 46 -14 51 -64 60 -26 4 -35 10 -35 25 0 15 9 21
35 25 49 8 60 17 60 46 0 28 16 64 28 64 5 0 13 -5 20 -12z m-1210 -40 c7 -7
12 -28 12 -47 0 -51 11 -62 71 -75 42 -10 54 -17 54 -32 0 -14 -12 -21 -53
-30 -30 -7 -56 -15 -59 -18 -3 -3 -8 -28 -11 -55 -8 -82 -55 -79 -65 5 -2 25
-7 48 -10 51 -4 3 -27 9 -54 14 -26 5 -51 13 -56 18 -19 19 2 40 48 46 52 8
75 33 75 80 0 28 15 55 30 55 3 0 11 -5 18 -12z m801 -83 c75 -18 174 -64 221
-104 25 -20 31 -32 26 -48 -11 -36 -35 -35 -97 3 -94 57 -161 77 -275 82 -118
5 -186 -7 -275 -49 -189 -89 -296 -242 -324 -461 -7 -51 -32 -71 -62 -47 -22
19 -13 125 20 219 67 191 237 347 437 401 82 23 242 24 329 4z m525 -171 c7
-19 -1 -34 -19 -34 -18 0 -28 17 -21 35 7 20 32 19 40 -1z m-734 -199 c74 -47
134 -90 132 -96 -1 -6 2 -7 8 -4 6 4 50 -19 97 -50 73 -48 84 -59 69 -67 -10
-5 -20 -7 -23 -4 -4 3 0 6 7 6 9 0 7 5 -5 14 -25 18 -40 10 -23 -12 11 -14 9
-14 -15 1 -15 10 -33 15 -39 11 -7 -4 -8 -3 -4 4 4 7 1 12 -8 12 -9 0 -16 5
-16 10 0 6 -6 10 -14 10 -7 0 -19 7 -26 15 -7 9 -19 14 -27 11 -8 -3 -11 -1
-8 4 4 6 -6 10 -23 10 -34 0 -45 9 -33 24 6 7 0 11 -19 12 -15 1 -38 10 -50
22 -12 11 -29 18 -38 15 -11 -5 -13 -3 -7 7 5 7 -4 5 -19 -6 -21 -15 -25 -25
-21 -46 5 -31 0 -35 -21 -13 -15 14 -44 11 -44 -6 0 -5 -7 -9 -16 -9 -8 0 -13
4 -10 9 3 5 -1 11 -9 15 -8 3 -16 16 -17 28 -1 13 -5 -22 -8 -77 l-6 -100 -2
144 c-2 136 -1 146 20 168 38 40 71 31 218 -62z m855 0 c0 -17 -8 -20 -52 -23
-46 -3 -53 -1 -53 16 0 28 10 33 60 30 37 -3 45 -6 45 -23z m79 7 c9 -14 -12
-35 -28 -29 -23 9 -20 37 3 37 11 0 22 -4 25 -8z m-934 -123 c0 -5 9 -9 19 -9
11 0 22 -3 24 -7 3 -5 -19 -8 -48 -8 -31 0 -50 4 -45 9 4 4 6 25 3 45 l-6 36
27 -28 c14 -15 26 -32 26 -38z m-60 36 c0 -8 -7 -15 -15 -15 -16 0 -20 12 -8
23 11 12 23 8 23 -8z m-625 -15 c0 -19 -55 -26 -66 -9 -12 21 0 30 34 27 20
-2 32 -8 32 -18z m1635 -95 c20 -24 3 -57 -28 -53 -30 3 -41 30 -22 53 16 19
34 19 50 0z m-1676 -30 c13 -34 -24 -66 -50 -44 -15 12 -19 41 -7 52 12 13 51
7 57 -8z m16 -165 c0 -17 -7 -20 -44 -20 -25 0 -48 5 -51 10 -12 19 6 30 51
30 37 0 44 -3 44 -20z m1584 -30 c9 -27 18 -36 41 -40 17 -3 30 -11 30 -20 0
-9 -13 -17 -30 -20 -24 -4 -32 -13 -41 -40 -13 -41 -37 -46 -42 -10 -5 34 -19
48 -50 52 -34 4 -36 32 -2 36 34 5 50 20 50 47 0 48 28 45 44 -5z m-1617 -116
c8 -21 -13 -42 -28 -27 -13 13 -5 43 11 43 6 0 13 -7 17 -16z m127 -94 c9 -27
18 -36 41 -40 40 -7 38 -32 -2 -42 -25 -7 -34 -16 -41 -41 -5 -17 -14 -32 -22
-32 -8 0 -17 15 -22 32 -7 25 -16 34 -41 41 -41 11 -41 33 0 44 24 6 34 16 39
36 13 55 30 55 48 2z m1286 -121 c0 -19 5 -29 15 -29 8 0 15 -4 15 -10 0 -5
-11 -10 -25 -10 -23 0 -25 4 -25 46 0 27 4 43 10 39 6 -3 10 -19 10 -36z m90
31 c0 -5 -7 -10 -15 -10 -8 0 -15 -4 -15 -10 0 -5 7 -7 15 -4 20 8 19 -6 -2
-22 -17 -13 -17 -13 0 -14 27 0 20 -20 -8 -20 -22 0 -25 4 -25 38 0 21 3 42 7
45 10 11 43 8 43 -3z m70 0 c0 -5 -4 -10 -10 -10 -5 0 -10 -16 -10 -35 0 -19
-4 -35 -10 -35 -5 0 -10 16 -10 35 0 19 -4 35 -10 35 -5 0 -10 5 -10 10 0 6
14 10 30 10 17 0 30 -4 30 -10z m30 -5 c0 -8 -4 -15 -10 -15 -5 0 -10 7 -10
15 0 8 5 15 10 15 6 0 10 -7 10 -15z m65 5 c3 -5 -4 -10 -16 -10 l-21 0 23
-18 c14 -12 20 -25 16 -35 -7 -19 -42 -23 -52 -7 -3 6 3 10 14 10 12 0 21 5
21 10 0 6 -6 10 -14 10 -22 0 -30 19 -16 35 14 17 36 19 45 5z m-427 -203 c3
-42 6 -47 28 -47 13 0 24 -4 24 -10 0 -5 -18 -10 -40 -10 l-40 0 0 61 c0 74
23 79 28 6z m139 41 c-2 -7 -12 -13 -22 -13 -10 0 -20 -6 -23 -13 -2 -7 5 -12
17 -12 27 0 27 -16 0 -23 -25 -7 -16 -27 12 -27 10 0 19 -4 19 -10 0 -5 -16
-10 -35 -10 l-35 0 0 60 0 60 36 0 c24 0 34 -4 31 -12z m103 3 c0 -5 -7 -11
-15 -15 -10 -4 -15 -20 -15 -52 0 -31 -4 -44 -12 -42 -8 3 -11 20 -9 47 2 36
-1 43 -18 48 -11 3 -18 9 -15 14 7 12 84 12 84 0z m50 -6 c0 -8 -7 -15 -15
-15 -8 0 -15 7 -15 15 0 8 7 15 15 15 8 0 15 -7 15 -15z m60 1 c0 -7 -7 -19
-15 -26 -13 -11 -15 -8 -15 14 0 16 5 26 15 26 8 0 15 -6 15 -14z m88 -5 c3
-10 -1 -12 -17 -8 -30 8 -37 -11 -8 -22 29 -11 38 -29 25 -53 -11 -23 -68 -25
-68 -2 0 11 6 13 19 9 30 -9 36 14 7 25 -25 9 -36 47 -19 64 12 11 56 2 61
-13z m-1534 -114 c50 -33 18 -105 -35 -77 -32 18 -80 15 -95 -5 -21 -28 0 -52
59 -69 100 -29 136 -95 99 -179 -24 -55 -63 -78 -132 -79 -55 0 -103 23 -119
59 -24 52 18 75 77 42 47 -27 89 -21 98 16 8 33 3 39 -65 64 -77 28 -111 66
-111 126 0 47 33 98 74 116 31 13 121 5 150 -14z m164 1 c7 -7 12 -28 12 -47
0 -29 6 -39 30 -53 17 -9 30 -21 30 -27 0 -14 -29 -41 -46 -41 -11 0 -14 -17
-14 -74 0 -68 2 -75 25 -90 46 -30 26 -76 -32 -76 -61 0 -83 45 -83 169 0 59
-2 67 -22 76 -33 14 -31 57 2 65 21 5 24 11 22 37 -2 18 2 41 8 52 12 23 49
28 68 9z m172 -118 c0 -4 17 1 39 13 33 18 43 19 65 9 45 -20 30 -82 -20 -82
-61 0 -77 -28 -84 -140 -5 -79 -7 -85 -28 -88 -46 -7 -52 10 -52 152 0 133 3
149 30 158 17 6 50 -8 50 -22z m343 16 c43 -17 85 -68 93 -111 10 -57 -4 -65
-117 -65 -55 0 -99 -4 -99 -8 0 -5 9 -17 20 -27 21 -19 53 -22 112 -10 30 6
38 4 47 -12 15 -29 -10 -58 -61 -71 -84 -21 -165 17 -194 93 -51 134 72 265
199 211z m333 -1 c31 -13 38 -13 59 1 18 12 28 13 44 4 20 -10 21 -19 21 -148
0 -94 -4 -142 -12 -150 -17 -17 -57 -15 -64 3 -5 13 -9 13 -34 0 -44 -23 -111
-19 -150 8 -104 69 -96 222 15 277 48 24 74 25 121 5z m229 1 c17 -12 24 -12
49 1 32 17 87 11 106 -12 10 -12 16 -11 40 7 52 38 127 10 156 -59 18 -41 19
-214 2 -231 -14 -14 -54 -16 -62 -3 -3 5 -7 51 -9 103 -4 104 -8 118 -41 118
-39 0 -46 -18 -46 -116 0 -99 -9 -118 -52 -112 -22 3 -23 8 -28 103 -3 55 -9
106 -13 113 -13 19 -55 14 -67 -7 -5 -11 -10 -54 -10 -96 0 -88 -11 -115 -45
-115 -37 0 -45 28 -45 164 0 100 3 128 16 140 19 20 25 20 49 2z m-2304 -1015
c-7 -13 -8 -22 -1 -26 16 -10 31 5 25 25 -3 10 0 20 8 23 10 4 12 -3 9 -27 -6
-39 -19 -56 -44 -56 -27 0 -32 25 -12 59 20 33 32 35 15 2z"/>
<path d="M1573 2245 c0 -8 4 -12 9 -9 5 3 6 10 3 15 -9 13 -12 11 -12 -6z"/>
<path d="M1622 2207 l26 -25 -21 -10 c-12 -6 -17 -11 -11 -11 5 -1 18 5 28 12
16 11 14 14 -16 35 l-33 23 27 -24z"/>
<path d="M1545 2200 c-3 -5 -1 -10 4 -10 6 0 11 5 11 10 0 6 -2 10 -4 10 -3 0
-8 -4 -11 -10z"/>
<path d="M1722 1034 c-36 -25 -25 -34 43 -34 36 0 65 4 65 9 0 15 -42 41 -65
41 -11 0 -31 -7 -43 -16z"/>
<path d="M2075 1038 c-77 -42 -51 -148 36 -148 83 0 111 108 38 145 -33 18
-47 18 -74 3z"/>
</g>
</svg>
