<?xml version="1.0" standalone="no"?>
<!DOCTYPE svg PUBLIC "-//W3C//DTD SVG 20010904//EN"
 "http://www.w3.org/TR/2001/REC-SVG-20010904/DTD/svg10.dtd">
<svg version="1.0" xmlns="http://www.w3.org/2000/svg"
 width="1024.000000pt" height="1024.000000pt" viewBox="0 0 1024.000000 1024.000000"
 preserveAspectRatio="xMidYMid meet">

<g transform="translate(0.000000,1024.000000) scale(0.100000,-0.100000)"
fill="#000000" stroke="none">
<path d="M5070 7512 l0 -708 33 -19 c17 -10 73 -49 122 -85 50 -37 129 -95
178 -130 48 -35 87 -67 87 -70 0 -3 -93 -62 -207 -130 -115 -68 -210 -125
-211 -126 -2 -1 -3 -74 -3 -161 1 -87 -3 -164 -7 -170 -6 -9 -18 1 -40 32 -18
25 -32 49 -32 54 0 5 -7 15 -16 22 -9 8 -50 61 -90 118 -41 58 -74 101 -74 97
0 -5 57 -88 127 -185 70 -97 132 -191 137 -208 6 -18 17 -33 24 -33 7 0 17
-10 22 -22 5 -13 9 -17 9 -10 1 6 6 12 12 12 6 0 9 -8 6 -19 -3 -14 0 -17 13
-14 10 3 29 -8 46 -24 16 -16 37 -32 47 -36 20 -7 23 -24 5 -30 -7 -2 -1 -2
14 0 18 3 33 -2 44 -16 10 -11 22 -17 27 -14 5 3 13 -1 18 -8 5 -9 3 -16 -9
-21 -14 -5 -13 -7 6 -7 12 -1 22 -6 22 -12 0 -5 -3 -8 -7 -6 -5 3 -8 -6 -8
-19 0 -30 3 -30 14 -1 8 20 10 20 16 4 5 -11 -2 -31 -19 -57 -42 -64 -22 -46
29 25 25 36 48 65 51 65 6 0 -13 -35 -28 -52 -7 -7 -25 -32 -41 -55 -15 -24
-32 -43 -37 -43 -6 0 -9 -3 -9 -7 3 -21 -2 -26 -12 -13 -9 13 -10 13 -6 -2 6
-17 -39 -85 -53 -81 -5 2 -7 -3 -4 -11 6 -15 -22 -41 -44 -41 -8 0 -17 -7 -19
-15 -4 -13 -3 -13 6 0 5 8 13 12 16 8 4 -3 -14 -32 -38 -65 -91 -120 -121
-172 -108 -187 23 -27 60 -28 104 -2 43 25 207 188 207 206 0 6 5 10 11 10 5
0 29 21 52 47 23 25 51 54 62 64 11 11 35 33 54 50 29 27 39 30 70 25 55 -9
347 -160 491 -254 14 -9 29 -17 33 -17 23 -1 27 -56 27 -403 l0 -373 28 20
c15 11 90 58 167 106 77 48 209 130 293 182 84 53 151 100 149 107 -3 10 -358
230 -554 343 l-82 48 0 550 c1 303 4 561 8 574 5 20 12 11 48 -65 52 -112 280
-622 343 -769 26 -60 89 -207 139 -325 51 -118 101 -233 111 -255 34 -75 34
-82 -4 -160 -20 -41 -64 -136 -97 -212 -34 -76 -84 -187 -111 -248 -82 -179
-184 -415 -284 -660 -52 -126 -103 -249 -114 -273 -11 -23 -20 -49 -20 -57 0
-8 -4 -15 -10 -15 -7 0 -10 191 -11 553 0 326 -4 544 -9 532 -5 -11 -25 -31
-44 -45 -44 -31 -46 -41 -6 -30 29 8 43 -3 16 -13 -16 -6 -26 -63 -13 -76 11
-11 -28 -25 -43 -16 -5 3 -10 1 -10 -4 0 -6 14 -11 31 -11 l32 0 -27 -25 c-15
-14 -24 -25 -20 -25 4 0 -3 -9 -16 -20 -13 -11 -18 -20 -11 -20 16 0 4 -42
-16 -53 -19 -11 -6 -28 15 -20 16 6 16 5 -1 -11 -9 -10 -30 -22 -45 -26 -25
-8 -25 -8 -4 -9 13 -1 21 -5 18 -10 -3 -5 -16 -7 -28 -3 -14 3 -19 2 -14 -6 5
-8 -1 -12 -18 -12 -14 0 -27 -3 -30 -8 -2 -4 11 -7 30 -6 23 1 34 -2 31 -10
-2 -6 -10 -11 -18 -12 -25 -2 -49 -16 -49 -29 0 -7 -6 -16 -12 -18 -7 -3 -2
-6 12 -7 l25 -1 -24 -19 c-13 -11 -29 -20 -36 -20 -7 0 -26 -7 -41 -16 l-29
-16 31 6 c18 3 45 8 60 11 17 3 10 -2 -15 -11 -30 -12 -39 -19 -30 -25 10 -6
9 -9 -6 -14 -11 -4 -31 -11 -45 -17 -25 -11 -25 -11 15 -24 38 -12 32 -17 -20
-16 -17 1 -17 0 -2 -4 16 -5 21 -16 18 -41 -1 -7 4 -13 10 -13 7 0 4 -7 -7
-15 -10 -8 -14 -15 -9 -16 6 0 -8 -7 -30 -14 l-40 -13 38 -1 c20 -1 37 -6 37
-12 0 -8 -13 -9 -40 -5 -42 6 -58 -9 -17 -17 18 -3 17 -5 -7 -6 l-29 -1 24
-19 c13 -10 31 -21 39 -24 11 -4 9 -6 -5 -6 -11 -1 -31 6 -43 15 -14 9 -30 13
-44 8 -21 -6 -21 -6 3 -20 13 -7 33 -14 44 -14 11 0 29 -7 39 -15 11 -8 29
-13 40 -9 17 4 18 3 6 -5 -13 -9 -12 -11 5 -12 11 -1 26 -1 34 0 7 2 10 -2 6
-8 -9 -15 8 -14 24 2 10 10 11 9 6 -4 -7 -19 46 -46 66 -33 7 4 10 3 5 -4 -3
-6 9 -15 31 -22 21 -7 43 -17 48 -22 6 -5 -21 3 -60 17 -169 64 -444 169 -605
230 -96 36 -204 78 -240 92 -81 32 -89 33 -120 18 -14 -8 -203 -190 -421 -407
-363 -361 -544 -553 -623 -666 l-31 -44 -3 339 c-2 223 1 363 9 413 8 55 9
207 4 563 -4 268 -4 487 -1 487 4 0 17 -5 28 -11 18 -10 20 -9 15 5 -4 11 -1
16 11 16 13 0 14 2 4 9 -13 8 -13 46 1 69 5 6 4 12 -1 12 -11 0 -9 85 3 113 4
9 3 17 -3 17 -5 0 -9 20 -8 45 0 25 4 45 8 45 11 0 5 44 -7 52 -6 5 -6 8 2 8
6 0 12 8 12 18 0 9 1 33 3 52 1 20 -1 41 -6 48 -4 7 -4 12 1 12 4 0 9 17 11
37 1 20 8 41 15 45 8 5 6 8 -7 8 -14 0 -16 3 -7 13 6 8 8 17 4 21 -4 4 -1 11
7 16 9 6 10 10 3 10 -9 0 -8 8 3 28 7 15 14 31 14 36 0 21 55 79 114 118 70
48 264 177 288 193 9 6 52 35 95 66 51 36 88 55 102 52 21 -3 21 -2 -5 37
l-26 40 -3 432 c-1 238 -4 443 -6 455 -4 22 36 55 310 253 50 36 90 68 91 72
0 9 -84 64 -255 168 -66 40 -147 90 -180 110 -33 21 -116 72 -185 113 -160 95
-326 197 -414 254 l-69 44 8 -1148 7 -1148 -208 -125 c-115 -69 -263 -158
-329 -197 -66 -40 -124 -74 -128 -76 -4 -1 11 -43 34 -92 46 -101 171 -386
434 -995 37 -85 75 -173 85 -195 10 -22 37 -85 59 -140 l41 -100 -1 -170 c-1
-93 -6 -217 -11 -275 -5 -58 -9 -113 -9 -122 0 -10 -4 -20 -9 -23 -12 -7 -2
-78 12 -86 6 -4 12 -20 14 -36 2 -26 1 -25 -18 12 -12 22 -53 108 -91 190 -38
83 -81 177 -97 210 -59 127 -218 461 -336 707 l-124 258 0 420 0 421 -97 -67
c-223 -154 -650 -455 -825 -582 -58 -42 -153 -111 -210 -152 -210 -151 -328
-248 -328 -269 0 -28 138 -160 168 -161 6 0 12 -4 12 -8 0 -5 6 -9 13 -9 7 0
56 -27 109 -61 54 -34 99 -62 102 -62 9 0 111 -65 114 -72 2 -5 10 -8 18 -8 8
0 14 -4 14 -10 0 -5 5 -10 10 -10 6 0 41 -19 78 -41 63 -39 110 -67 157 -93
11 -7 46 -27 78 -46 91 -55 150 -89 172 -100 11 -6 58 -35 105 -64 47 -30 126
-77 175 -104 50 -27 141 -81 202 -121 62 -39 132 -80 155 -92 24 -12 50 -27
58 -34 8 -7 48 -30 88 -50 39 -21 72 -42 72 -47 0 -4 5 -8 11 -8 14 0 133 -71
137 -82 2 -4 8 -8 14 -8 6 0 25 -11 43 -24 17 -14 48 -33 67 -44 19 -11 46
-26 59 -34 13 -7 26 -16 29 -20 3 -4 29 -19 57 -35 115 -62 204 -114 246 -143
25 -16 52 -30 61 -30 9 0 16 -4 16 -9 0 -5 17 -17 38 -26 20 -10 77 -42 125
-72 49 -29 91 -53 94 -53 3 0 29 -15 57 -34 83 -54 154 -93 282 -156 108 -53
129 -60 180 -60 33 1 79 6 104 11 25 6 60 13 78 16 18 3 35 9 38 14 3 5 14 9
25 9 10 0 19 4 19 9 0 5 10 12 23 16 64 18 158 66 150 77 -3 6 -2 8 4 5 6 -4
18 0 29 7 10 8 23 12 29 9 7 -2 17 6 24 19 6 13 9 15 7 5 -7 -23 -1 -22 29 9
14 14 30 22 35 19 6 -3 10 0 10 8 0 15 43 32 69 28 8 -2 12 3 8 12 -4 10 4 17
25 21 17 3 48 22 70 41 21 20 44 33 50 29 7 -4 0 -13 -16 -21 -34 -18 -28 -28
7 -12 13 6 31 22 38 36 7 13 25 27 41 30 15 3 28 10 28 16 0 15 32 36 57 37
12 0 36 14 53 32 26 25 34 29 41 17 7 -12 9 -11 9 2 0 16 30 49 45 49 4 0 2
-7 -5 -15 -8 -9 -8 -15 -2 -15 6 0 19 11 29 24 10 13 34 31 53 41 19 10 40 24
48 31 7 8 17 14 22 14 5 0 21 11 35 24 14 14 45 28 68 32 42 8 42 8 12 15 -25
5 -26 7 -7 8 13 0 21 5 18 10 -3 5 10 16 28 25 19 9 50 31 69 49 19 17 40 33
48 35 8 2 16 8 17 13 2 5 8 9 12 9 5 0 23 14 40 30 17 17 36 28 41 24 5 -3 19
6 30 20 11 15 25 24 30 21 5 -4 9 -3 9 2 0 9 62 47 73 45 4 -1 7 5 7 13 0 8 6
15 13 15 7 0 36 18 66 40 29 22 59 40 66 40 8 0 20 8 27 18 12 17 54 40 101
56 11 3 15 11 11 17 -5 8 1 10 19 7 14 -3 25 -2 24 1 -1 4 11 19 26 35 19 19
35 26 48 23 17 -5 18 -3 8 9 -10 12 -9 13 3 9 9 -4 18 0 21 8 3 8 27 25 54 38
26 13 65 34 85 46 21 13 44 23 52 23 8 0 16 6 19 14 3 7 26 23 50 35 25 12 57
33 72 47 14 13 31 22 36 19 5 -4 9 -2 9 3 0 4 16 16 35 25 19 9 35 21 35 27 0
5 6 7 13 5 6 -3 26 8 42 23 17 16 36 27 43 24 6 -2 12 2 12 10 0 7 28 26 63
43 34 16 75 40 90 52 16 13 33 23 40 23 6 0 23 15 38 33 16 17 28 26 29 19 0
-17 70 57 85 92 14 32 5 76 -22 107 -7 9 -11 22 -8 30 5 14 -135 204 -365 494
-69 86 -172 218 -229 294 -106 138 -199 258 -421 546 -68 88 -280 342 -470
563 -435 509 -596 699 -626 737 l-23 30 -2 557 c-1 396 -5 562 -13 572 -16 19
-120 87 -446 291 -157 98 -296 186 -310 196 -41 28 -361 229 -366 229 -2 0 -4
-319 -4 -708z m-899 -1577 c120 -97 413 -337 427 -350 11 -10 -8 -24 -100 -75
-62 -35 -172 -98 -243 -140 -178 -105 -172 -102 -172 -85 0 8 5 11 11 8 6 -4
5 1 -3 10 -8 10 -11 20 -9 23 3 3 0 29 -7 57 -8 29 -16 104 -19 167 -4 63 -8
131 -10 150 -3 19 -7 78 -10 130 -6 83 -9 118 -20 193 -1 9 -8 23 -14 29 -7 7
-12 16 -12 20 0 8 20 -7 181 -137z m1252 -352 c-3 -7 -9 -13 -13 -13 -4 0 -10
6 -13 13 -3 7 3 13 13 13 10 0 16 -6 13 -13z m692 -1493 c3 -6 -4 -10 -17 -10
-18 0 -20 2 -8 10 19 12 18 12 25 0z m-127 -228 c2 -7 -3 -12 -12 -12 -9 0
-16 7 -16 16 0 17 22 14 28 -4z m-69 -146 c-12 -10 -79 -16 -79 -6 0 5 19 10
42 10 23 0 39 -2 37 -4z m-32 -52 c-3 -3 -12 -4 -19 -1 -8 3 -5 6 6 6 11 1 17
-2 13 -5z m0 -30 c-3 -3 -12 -4 -19 -1 -8 3 -5 6 6 6 11 1 17 -2 13 -5z m-132
-154 c8 -13 -5 -13 -25 0 -13 8 -13 10 2 10 9 0 20 -4 23 -10z"/>
<path d="M4705 6386 c10 -14 19 -26 22 -26 7 0 -17 39 -28 46 -6 3 -3 -5 6
-20z"/>
<path d="M4771 6283 c7 -12 15 -20 18 -17 3 2 -3 12 -13 22 -17 16 -18 16 -5
-5z"/>
<path d="M6020 4040 c0 -5 5 -10 11 -10 5 0 7 5 4 10 -3 6 -8 10 -11 10 -2 0
-4 -4 -4 -10z"/>
<path d="M5995 3999 c-4 -6 -5 -12 -2 -15 2 -3 7 2 10 11 7 17 1 20 -8 4z"/>
<path d="M5890 3830 c8 -5 20 -10 25 -10 6 0 3 5 -5 10 -8 5 -19 10 -25 10 -5
0 -3 -5 5 -10z"/>
<path d="M5758 3638 c5 -5 16 -8 23 -6 8 3 3 7 -10 11 -17 4 -21 3 -13 -5z"/>
<path d="M5773 3609 c-18 -5 -33 -12 -33 -14 0 -6 58 5 85 16 l20 8 -20 -1
c-11 0 -35 -4 -52 -9z"/>
<path d="M5650 3506 c0 -2 9 -6 20 -9 11 -3 18 -1 14 4 -5 9 -34 13 -34 5z"/>
<path d="M3806 2935 c-9 -26 -7 -32 5 -12 6 10 9 21 6 23 -2 3 -7 -2 -11 -11z"/>
<path d="M3920 2825 c0 -7 -8 -18 -17 -24 -16 -9 -15 -10 5 -8 16 1 22 8 22
24 0 13 -2 23 -5 23 -3 0 -5 -7 -5 -15z"/>
<path d="M3851 2784 c-1 -6 8 -23 19 -36 10 -14 16 -28 13 -32 -3 -3 -1 -6 6
-6 8 0 10 -8 5 -22 -8 -27 -2 -23 16 11 6 13 7 21 2 17 -6 -3 -13 3 -17 14 -3
11 -11 20 -16 20 -6 0 -8 10 -4 23 4 15 3 18 -3 8 -8 -11 -10 -11 -15 0 -3 8
-6 9 -6 3z"/>
</g>
</svg>
